<svg width="56" height="56" viewBox="0 0 56 56" fill="none" xmlns="http://www.w3.org/2000/svg">
<path d="M0.531995 19.53C0.531995 19.53 -0.830672 18.5337 0.804995 17.2083L4.61999 13.7597C4.61999 13.7597 5.70966 12.6 6.86466 13.6103L42.0537 40.5417V53.4543C42.0537 53.4543 42.0373 55.4843 39.4637 55.2603L0.529661 19.5277L0.531995 19.53Z" fill="#182359"/>
<path d="M9.604 27.853L0.532002 36.1877C0.532002 36.1877 -0.401331 36.8877 0.532002 38.1407L4.74367 42.014C4.74367 42.014 5.74467 43.099 7.22167 41.8623L16.8373 34.4937L9.604 27.853ZM25.5267 27.9207L42.1633 15.0827L42.0537 2.23766C42.0537 2.23766 41.342 -0.56701 38.9737 0.893657L16.8373 21.2567L25.5267 27.9207V27.9207Z" fill="#182359"/>
<path d="M39.4613 55.2767C40.4273 56.2753 41.5987 55.9487 41.5987 55.9487L54.5627 49.4923C56.2217 48.349 55.9883 46.9303 55.9883 46.9303V8.37199C55.9883 6.67799 54.2733 6.09232 54.2733 6.09232L43.036 0.615991C40.5813 -0.917009 38.9737 0.893658 38.9737 0.893658C38.9737 0.893658 41.041 -0.611342 42.0537 2.23766V53.221C42.0537 53.571 41.979 53.914 41.832 54.2243C41.5357 54.8287 40.894 55.391 39.354 55.1577L39.4613 55.2767V55.2767Z" fill="#182359"/>
</svg>
