<svg width="56" height="56" viewBox="0 0 56 56" fill="none" xmlns="http://www.w3.org/2000/svg">
<path fill-rule="evenodd" clip-rule="evenodd" d="M28 3.49999C22.1835 3.50078 16.557 5.57091 12.127 9.34008C7.69694 13.1093 4.75241 18.3316 3.82008 24.0729C2.88775 29.8142 4.02845 35.6999 7.03813 40.6772C10.0478 45.6545 14.7301 49.3987 20.2475 51.24C21.4725 51.4675 21.9975 50.715 21.9975 50.0675V45.9025C15.19 47.3725 13.755 42.6125 13.755 42.6125C13.2763 41.1124 12.2688 39.8375 10.92 39.025C8.69749 37.52 11.095 37.5375 11.095 37.5375C11.8713 37.6472 12.6123 37.9328 13.2613 38.3726C13.9104 38.8124 14.4504 39.3947 14.84 40.075C15.5178 41.2908 16.6508 42.1876 17.9897 42.5683C19.3286 42.9489 20.7639 42.7823 21.98 42.105C22.0788 40.8633 22.6262 39.7001 23.52 38.8325C18.095 38.2025 12.3725 36.1025 12.3725 26.7225C12.3328 24.2863 13.2356 21.9289 14.8925 20.1425C14.1425 18.0323 14.2302 15.7149 15.1375 13.6675C15.1375 13.6675 17.185 13.0025 21.875 16.17C25.8851 15.0762 30.1149 15.0762 34.125 16.17C38.7975 13.0025 40.845 13.6675 40.845 13.6675C41.7522 15.7149 41.8399 18.0323 41.09 20.1425C42.7468 21.9289 43.6497 24.2863 43.61 26.7225C43.61 36.1375 37.8875 38.2025 32.4275 38.815C33.0124 39.4078 33.4634 40.1191 33.7502 40.901C34.037 41.6828 34.1528 42.5171 34.09 43.3475V50.0675C34.09 50.8725 34.5275 51.485 35.84 51.24C41.3646 49.3964 46.0518 45.645 49.061 40.6585C52.0702 35.6721 53.2046 29.7767 52.2608 24.0296C51.317 18.2824 48.3567 13.0595 43.9108 9.29734C39.4648 5.53518 33.8241 3.47987 28 3.49999V3.49999Z" fill="#182359"/>
</svg>
