<svg width="56" height="56" viewBox="0 0 56 56" fill="none" xmlns="http://www.w3.org/2000/svg">
<g clip-path="url(#clip0_206_4368)">
<path d="M38.2813 13.244C38.0083 13.244 37.8263 13.2808 37.6425 13.3263V13.3543H37.6705C37.7983 13.5905 38.0083 13.7743 38.171 13.993C38.2988 14.2398 38.4073 14.4935 38.5263 14.7403L38.563 14.7035C38.7818 14.5478 38.892 14.3028 38.892 13.9283C38.801 13.818 38.7818 13.7008 38.7013 13.5993C38.6103 13.4435 38.409 13.363 38.2813 13.244ZM13.4628 44.0318H11.3033C11.2379 40.5945 11.0283 37.1615 10.675 33.7418H10.6575L7.36751 44.0318H5.71726L2.4535 33.7418H2.4255C2.17187 37.1665 2.02014 40.598 1.9705 44.0318H0.00175476C0.108358 39.7165 0.42783 35.4092 0.959005 31.1255H3.63826L6.75501 40.6053H6.77251L9.91726 31.1255H12.4688C13.034 35.8295 13.3718 40.131 13.4715 44.0318H13.4628ZM22.8323 34.5083C21.9573 39.284 20.79 42.7578 19.3603 44.9173C18.2298 46.585 16.9995 47.4233 15.659 47.4233C15.3038 47.4233 14.8663 47.313 14.3378 47.0943V45.9463C14.602 45.983 14.903 46.0093 15.2408 46.0093C15.869 46.0093 16.3713 45.8273 16.7545 45.4895C17.2095 45.0695 17.4388 44.597 17.4388 44.0773C17.4388 43.7133 17.2655 42.9835 16.9015 41.8723L14.5408 34.5083H16.6653L18.361 40.0138C18.7443 41.272 18.9088 42.1383 18.8353 42.6388C19.7733 40.159 20.4208 37.443 20.7865 34.5083H22.8323ZM51.597 44.0318H45.4545V31.1255H47.523V42.4463H51.597V44.0318ZM43.8498 44.3433L41.4803 43.176C41.6903 43.0028 41.8898 42.812 42.0735 42.5933C43.085 41.4173 43.5873 39.6585 43.5873 37.3433C43.5873 33.068 41.9108 30.9365 38.556 30.9365C36.9145 30.9365 35.63 31.4738 34.7095 32.5588C33.7068 33.7435 33.1958 35.4935 33.1958 37.8C33.1958 40.0698 33.642 41.7288 34.5363 42.7945C35.357 43.743 36.5873 44.226 38.2375 44.226C38.8483 44.226 39.4135 44.1525 39.9245 43.9985L43.015 45.8028L43.862 44.345L43.8498 44.3433ZM36.1673 41.4435C35.6388 40.6053 35.3833 39.256 35.3833 37.3958C35.3833 34.1425 36.3685 32.5203 38.346 32.5203C39.3768 32.5203 40.1415 32.9123 40.6245 33.6875C41.1443 34.5345 41.4085 35.8663 41.4085 37.7073C41.4085 40.9798 40.4145 42.63 38.4458 42.63C37.4063 42.63 36.6503 42.238 36.1585 41.4628L36.1673 41.4435ZM32.3015 40.46C32.3015 41.5538 31.9008 42.4568 31.0888 43.148C30.2873 43.8498 29.2198 44.205 27.8618 44.205C26.5948 44.205 25.382 43.8043 24.1885 43.001L24.745 41.8898C25.7653 42.4008 26.6858 42.6563 27.5258 42.6563C28.301 42.6563 28.9118 42.483 29.3493 42.1453C29.7868 41.7988 30.051 41.3158 30.051 40.705C30.051 39.9385 29.5138 39.2823 28.5373 38.7363C27.6343 38.2358 25.8213 37.205 25.8213 37.205C24.836 36.4858 24.353 35.7193 24.353 34.4523C24.353 33.404 24.717 32.5658 25.4468 31.927C26.1853 31.2708 27.1233 30.9523 28.2905 30.9523C29.4518 30.9422 30.5902 31.2752 31.563 31.9095L31.0625 33.0208C30.2806 32.6764 29.4371 32.4937 28.5828 32.4835C27.9178 32.4835 27.4068 32.648 27.0515 32.9665C26.6963 33.285 26.4775 33.6858 26.4775 34.188C26.4775 34.9545 27.0253 35.6108 28.0263 36.1743C28.9468 36.6748 30.7965 37.7335 30.7965 37.7335C31.808 38.444 32.3103 39.2105 32.3103 40.4583L32.3015 40.46ZM54.187 26.7978C52.9375 26.7698 51.9715 26.8975 51.1613 27.244C50.9338 27.335 50.5593 27.335 50.5225 27.6273C50.6503 27.755 50.6678 27.9563 50.778 28.1278C50.9688 28.4375 51.289 28.8575 51.59 29.0763C51.919 29.3318 52.2463 29.5873 52.584 29.806C53.1948 30.1805 53.879 30.3993 54.4793 30.772C54.817 30.9908 55.1635 31.2725 55.4995 31.5018C55.6728 31.6208 55.7813 31.8308 56 31.9025V31.857C55.8898 31.7205 55.8635 31.5193 55.7533 31.3565C55.5975 31.2008 55.4435 31.0643 55.2878 30.9103C54.8314 30.3043 54.2842 29.7725 53.6655 29.3335C53.165 28.9958 52.0713 28.5215 51.87 27.9475L51.842 27.9108C52.1798 27.8828 52.5805 27.755 52.9078 27.664C53.4363 27.5275 53.928 27.5538 54.4758 27.4173C54.727 27.352 54.9762 27.2791 55.223 27.1985V27.062C54.9413 26.7803 54.7313 26.397 54.439 26.1328C53.6337 25.4281 52.7741 24.7879 51.8683 24.2183C51.3765 23.8998 50.757 23.6985 50.2373 23.4343C50.0553 23.3433 49.7368 23.2978 49.6353 23.142C49.3535 22.7955 49.189 22.3493 48.9878 21.938C48.53 21.0483 48.1045 20.1424 47.712 19.222C47.4303 18.6113 47.2658 18.0093 46.9193 17.444C45.3145 14.791 43.5645 13.188 40.8853 11.6113C40.3113 11.2823 39.6183 11.1458 38.8885 10.9725C38.4965 10.955 38.1133 10.927 37.7213 10.9095C37.4658 10.7993 37.2208 10.5088 37.002 10.3618C36.1095 9.79651 33.8118 8.58376 33.1643 10.1885C32.7443 11.2088 33.7838 12.2028 34.1495 12.7138C34.4138 13.0778 34.7515 13.4803 34.9423 13.881C35.0525 14.154 35.0788 14.4375 35.189 14.7193C35.4358 15.4035 35.672 16.1683 36.001 16.807C36.1743 17.136 36.3563 17.4808 36.575 17.773C36.7028 17.9463 36.9215 18.0198 36.967 18.3015C36.7483 18.62 36.7308 19.0855 36.6118 19.4688C36.0465 21.2363 36.2653 23.415 37.058 24.7188C37.3135 25.1108 37.905 25.9683 38.6995 25.6393C39.4013 25.3575 39.2473 24.472 39.4468 23.688C39.4923 23.4973 39.4643 23.3783 39.557 23.2505V23.2873C39.7845 23.7248 40.0033 24.1448 40.2045 24.5823C40.6788 25.3488 41.5258 26.1415 42.2275 26.67C42.602 26.9518 42.8925 27.4365 43.358 27.608V27.5625H43.3213C43.2215 27.426 43.0938 27.3613 42.966 27.2528C42.6705 26.96 42.3962 26.6465 42.1453 26.3148C41.4978 25.4398 40.915 24.4738 40.404 23.4798C40.1578 22.9886 39.933 22.4871 39.7303 21.9765C39.6393 21.7945 39.6393 21.511 39.4835 21.42C39.2473 21.7578 38.9008 22.0483 38.7363 22.477C38.4353 23.142 38.4073 23.9715 38.29 24.829C38.2358 24.8465 38.262 24.829 38.2358 24.8658C37.7353 24.738 37.562 24.227 37.3783 23.7895C36.904 22.6783 36.8305 20.9003 37.233 19.6245C37.3433 19.2955 37.807 18.2665 37.625 17.9568C37.5253 17.6558 37.2155 17.4825 37.051 17.2463C36.841 16.954 36.631 16.5813 36.4858 16.2523C36.1113 15.3773 35.9293 14.4113 35.5198 13.5363C35.3378 13.1355 35.0088 12.7155 34.7445 12.3428C34.4435 11.9228 34.1163 11.6235 33.887 11.13C33.8048 10.9568 33.6963 10.675 33.824 10.4913C33.852 10.3635 33.915 10.318 34.0428 10.2813C34.244 10.108 34.8268 10.3268 35.028 10.4265C35.602 10.654 36.085 10.8728 36.568 11.2018C36.7868 11.3575 37.023 11.648 37.3065 11.7303H37.6355C38.136 11.8405 38.6925 11.7583 39.158 11.9035C39.9875 12.1678 40.7348 12.551 41.4085 12.9693C43.4689 14.2919 45.1445 16.1341 46.2665 18.3103C46.4573 18.6655 46.5395 18.9945 46.7128 19.3673C47.0313 20.1425 47.4425 20.916 47.7698 21.6545C48.097 22.393 48.4085 23.1403 48.881 23.751C49.1173 24.08 50.0483 24.2515 50.4753 24.416C50.785 24.5613 51.268 24.689 51.541 24.8535C52.0783 25.1825 52.6068 25.5553 53.109 25.9193C53.3645 26.0925 54.1398 26.4845 54.1853 26.7943L54.187 26.7978Z" fill="#182359"/>
</g>
<defs>
<clipPath id="clip0_206_4368">
<rect width="56" height="56" fill="white"/>
</clipPath>
</defs>
</svg>
