<svg width="56" height="56" viewBox="0 0 56 56" fill="none" xmlns="http://www.w3.org/2000/svg">
<g clip-path="url(#clip0_702_3205)">
<path d="M50.7281 1.21669C48.3201 -0.929687 45.4081 -0.0664999 42.5302 2.48631C42.0872 2.88452 41.6613 3.30139 41.2536 3.73581C36.3335 8.95519 31.7669 18.6196 30.3485 26.0024C30.9006 27.1237 31.3329 28.5539 31.6181 29.6459C31.7605 30.1886 31.8882 30.7351 32.0009 31.2848C32.0009 31.2848 31.9567 31.1189 31.7756 30.5944L31.6592 30.2544C31.6354 30.1916 31.6097 30.1294 31.5823 30.0681C31.2611 29.3212 30.3743 27.7454 29.9827 27.0603C29.6724 27.9689 29.3796 28.8835 29.1043 29.8034C30.2339 31.8658 30.9194 35.4034 30.9194 35.4034C30.9194 35.4034 30.8612 35.1728 30.5773 34.3731C30.3279 33.6656 29.0736 31.4694 28.7761 30.9566C28.2686 32.8335 28.0674 34.0979 28.2481 34.4054C28.6038 35.0018 28.9384 36.0342 29.2324 37.1722C29.9009 39.7394 30.3638 42.8667 30.3638 42.8667L30.4049 43.3882C30.3161 45.5258 30.3603 47.6674 30.5349 49.8002C30.7571 52.4746 31.1723 54.7698 31.7021 56.0004L32.0626 55.8036C31.2834 53.382 30.9671 50.2071 31.1071 46.5483C31.3158 40.9526 32.6043 34.2042 34.9816 27.1714C39.0027 16.5572 44.5795 8.03819 49.6825 3.969C45.0319 8.16944 38.7349 21.7731 36.8497 26.8078C34.7392 32.4459 33.2456 37.7352 32.3444 42.805C33.8997 38.0524 38.9257 36.0119 38.9257 36.0119C38.9257 36.0119 41.3919 32.9696 44.2733 28.6256C42.5473 29.0185 39.7119 29.6936 38.7616 30.0917C37.3616 30.6779 36.9841 30.8779 36.9841 30.8779C36.9841 30.8779 41.5214 28.1164 45.4147 26.8651C50.7671 18.4345 56.5998 6.45794 50.7281 1.21669ZM7.392 2.48544C5.03038 2.49419 3.11763 4.40606 3.11106 6.76813V45.5193C3.11806 47.8809 5.03169 49.7914 7.392 49.8002H29.3663C29.2022 47.6988 29.1618 45.5897 29.2451 43.4836C29.2316 43.3383 29.2193 43.1537 29.2075 43.0167C28.9234 41.1513 28.5551 39.2997 28.1037 37.4675C27.8215 36.3707 27.4628 35.3723 27.244 35.0017C26.9723 34.5419 27.0147 34.2786 27.0165 33.9933C27.0165 33.7133 27.0524 33.4224 27.104 33.0925C27.242 32.2706 27.4237 31.4577 27.6491 30.6539L28.1549 30.5891C28.1155 30.5069 28.1225 30.4369 28.0831 30.3634L27.9873 29.4748C28.2664 28.5399 28.564 27.6106 28.8798 26.6875L29.3462 26.6429C29.3274 26.607 29.3221 26.5541 29.3033 26.5204L29.2027 25.7832C30.674 18.1287 35.2402 8.41488 40.4031 2.93738C40.5571 2.7755 40.7142 2.63856 40.8647 2.48456L7.392 2.48544Z" fill="#182359"/>
</g>
<defs>
<clipPath id="clip0_702_3205">
<rect width="56" height="56" fill="white"/>
</clipPath>
</defs>
</svg>
