<svg width="56" height="56" viewBox="0 0 56 56" fill="none" xmlns="http://www.w3.org/2000/svg">
<g clip-path="url(#clip0_206_875)">
<path fill-rule="evenodd" clip-rule="evenodd" d="M56 56H0V0H56V56ZM44.4511 23.7359V19.3926C43.7358 19.0741 39.6396 17.9024 36.4035 19.1372C31.7419 20.9159 31.9094 26.2742 33.6783 28.3771C35.9703 31.1019 41.6717 32.1178 40.7387 34.7922C40.2556 36.1771 38.0002 36.4182 36.0117 35.9532C34.16 35.5203 32.55 34.4235 32.55 34.4235V39.0222C32.55 39.0222 34.1414 39.9094 36.0946 40.1205C38.5985 40.391 41.7372 39.8802 43.3095 38.4826C46.1085 35.9947 46.5383 30.4832 41.2342 27.924C36.8203 25.7945 36.893 25.1867 36.9239 24.0943C36.9655 22.6313 40.0372 21.7307 44.4511 23.7359ZM20.6489 11.5473C24.3214 11.675 29.7185 13.3676 29.7185 20.5849C29.7185 27.8022 23.1151 30.1705 17.0897 29.6545V39.8737H12.6011V11.643C12.6011 11.643 16.9762 11.4195 20.6488 11.5473H20.6489ZM21.8145 25.1836C23.75 24.4774 25.008 22.9591 25.008 20.6008C25.008 18.1004 23.7278 16.4071 21.7698 15.9288C19.6494 15.4107 17.0897 15.7161 17.0897 15.7161V25.5647C17.0897 25.5647 20.6329 25.6147 21.8145 25.1836Z" fill="#182359"/>
</g>
<defs>
<clipPath id="clip0_206_875">
<rect width="56" height="56" rx="10" fill="white"/>
</clipPath>
</defs>
</svg>
