<svg width="56" height="56" viewBox="0 0 56 56" fill="none" xmlns="http://www.w3.org/2000/svg">
<g clip-path="url(#clip0_206_871)">
<path fill-rule="evenodd" clip-rule="evenodd" d="M18.8179 11.8134H24.6513L33.0396 39.9163H27.9727L25.8862 31.9113H17.7109L15.5818 39.9164H11.1109L18.818 13.1334V11.8134H18.8179ZM24.7365 27.781L21.841 15.9009L18.8604 27.7808H24.7365V27.781ZM41.726 19.031H37.1273V39.9164H41.726V19.0312V19.031ZM39.3673 10.9168C37.8775 10.9168 36.6698 12.1107 36.6698 13.5834C36.6698 15.0561 37.8775 16.2501 39.3673 16.2501C40.8571 16.2501 42.065 15.0562 42.065 13.5835C42.065 12.1108 40.8573 10.9168 39.3673 10.9168ZM56 56H0V0H56V56Z" fill="#182359"/>
</g>
<defs>
<clipPath id="clip0_206_871">
<rect width="56" height="56" rx="10" fill="white"/>
</clipPath>
</defs>
</svg>
