<svg width="56" height="56" viewBox="0 0 56 56" fill="none" xmlns="http://www.w3.org/2000/svg">
<path d="M0 0V56H56V0H0ZM23.7932 40.1983L18.6156 29.528L13.6201 40.1728H8.75142L15.9164 26.523L8.98887 12.7203H14.0422L18.9468 23.2123L23.8103 12.6948H28.5539L21.6207 26.09L28.9633 40.1983H23.7931H23.7932ZM45.9919 39.0777C43.8527 40.0964 41.6116 40.5548 39.4725 40.5548C33.9464 40.5803 29.9992 37.1678 29.9992 30.241C30.179 23.1452 34.907 19.1857 41.5353 19.7235V12.7203H46.0682V36.302C46.0776 39.1144 46.388 38.8439 45.9919 39.0777ZM41.5352 23.7217V36.3274C37.061 37.4884 34.5871 34.7655 34.6084 30.0372C34.6253 25.1882 37.8112 22.6716 41.5352 23.7217Z" fill="#182359"/>
</svg>
