<svg width="56" height="56" viewBox="0 0 56 56" fill="none" xmlns="http://www.w3.org/2000/svg">
<path d="M36.75 19.25C39.0707 19.25 41.2962 18.3281 42.9372 16.6872C44.5781 15.0462 45.5 12.8206 45.5 10.5C45.5 8.17936 44.5781 5.95376 42.9372 4.31282C41.2962 2.67187 39.0707 1.75 36.75 1.75H19.25C16.9294 1.75 14.7038 2.67187 13.0628 4.31282C11.4219 5.95376 10.5 8.17936 10.5 10.5C10.5 12.8206 11.4219 15.0462 13.0628 16.6872C14.7038 18.3281 16.9294 19.25 19.25 19.25C16.9294 19.25 14.7038 20.1719 13.0628 21.8128C11.4219 23.4538 10.5 25.6794 10.5 28C10.5 30.3206 11.4219 32.5462 13.0628 34.1872C14.7038 35.8281 16.9294 36.75 19.25 36.75C17.5194 36.75 15.8277 37.2632 14.3888 38.2246C12.9498 39.1861 11.8283 40.5527 11.1661 42.1515C10.5038 43.7504 10.3305 45.5097 10.6681 47.207C11.0058 48.9044 11.8391 50.4635 13.0628 51.6872C14.2865 52.9109 15.8456 53.7443 17.543 54.0819C19.2403 54.4195 20.9996 54.2462 22.5985 53.5839C24.1973 52.9217 25.5639 51.8002 26.5254 50.3612C27.4868 48.9223 28 47.2306 28 45.5V19.25H36.75Z" fill="#182359"/>
<path d="M36.75 36.75C41.5825 36.75 45.5 32.8325 45.5 28C45.5 23.1675 41.5825 19.25 36.75 19.25C31.9175 19.25 28 23.1675 28 28C28 32.8325 31.9175 36.75 36.75 36.75Z" fill="#182359"/>
</svg>
