<svg width="56" height="56" viewBox="0 0 56 56" fill="none" xmlns="http://www.w3.org/2000/svg">
<g clip-path="url(#clip0_702_3214)">
<path fill-rule="evenodd" clip-rule="evenodd" d="M16.3623 24.6107C16.4605 24.6674 16.542 24.7491 16.5986 24.8474C16.6551 24.9457 16.6847 25.0573 16.6843 25.1707L16.6731 33.4811C16.6731 33.5959 16.6115 33.7051 16.5135 33.7611C16.4647 33.7913 16.4085 33.8074 16.3511 33.8074C16.2937 33.8074 16.2374 33.7913 16.1887 33.7611L13.0051 31.9355C12.9063 31.8791 12.8242 31.7976 12.7672 31.6993C12.7101 31.6009 12.6801 31.4892 12.6803 31.3755V27.4919C12.6804 27.3782 12.6504 27.2665 12.5933 27.1681C12.5363 27.0697 12.4542 26.9882 12.3555 26.9319L11.0003 26.1507C10.902 26.0936 10.7905 26.0636 10.6769 26.0636C10.5633 26.0636 10.4517 26.0936 10.3535 26.1507L8.99546 26.9347C8.89723 26.9914 8.81571 27.0731 8.75917 27.1714C8.70263 27.2697 8.67306 27.3813 8.67346 27.4947V31.3755C8.67358 31.4892 8.64359 31.6009 8.58654 31.6993C8.52949 31.7976 8.44742 31.8791 8.34866 31.9355L5.15946 33.7639C5.11134 33.793 5.05614 33.8085 4.99986 33.8085C4.94359 33.8085 4.88839 33.793 4.84026 33.7639C4.78988 33.7369 4.748 33.6964 4.71932 33.6469C4.69064 33.5975 4.67628 33.541 4.67786 33.4839L4.66666 25.1735C4.66666 24.9411 4.78986 24.7255 4.99146 24.6107L10.3507 21.5251C10.439 21.4704 10.5408 21.4413 10.6447 21.4411H10.7007C10.8055 21.4407 10.9083 21.4699 10.9975 21.5251L16.3623 24.6107ZM41.9039 29.6395C41.9286 29.6252 41.9493 29.6049 41.964 29.5804C41.9787 29.5559 41.9869 29.528 41.9879 29.4995V27.3715C41.9879 27.3155 41.9543 27.2595 41.9039 27.2315L40.0615 26.1675C40.0366 26.1538 40.0087 26.1466 39.9803 26.1466C39.9519 26.1466 39.9239 26.1538 39.8991 26.1675L38.0595 27.2315C38.0352 27.2461 38.0151 27.2666 38.0009 27.2911C37.9867 27.3155 37.9789 27.3432 37.9783 27.3715V29.4995C37.9783 29.5555 38.0091 29.6115 38.0623 29.6395L39.9019 30.7035C39.9523 30.7315 40.0139 30.7315 40.0643 30.7035L41.9039 29.6395ZM42.1615 13.7551C42.2106 13.7277 42.2658 13.7131 42.3221 13.7126C42.3784 13.7121 42.4338 13.7258 42.4835 13.7523L45.6755 15.5331C45.7766 15.5888 45.8609 15.6707 45.9195 15.7702C45.9782 15.8698 46.0089 15.9832 46.0087 16.0987V31.5323C46.0088 31.646 45.9788 31.7577 45.9217 31.8561C45.8647 31.9544 45.7826 32.0359 45.6839 32.0923L40.3191 35.1919C40.2208 35.2489 40.1093 35.279 39.9957 35.279C39.8821 35.279 39.7705 35.2489 39.6723 35.1919L34.3075 32.0951C34.2087 32.0387 34.1266 31.9572 34.0696 31.8589C34.0125 31.7605 33.9825 31.6488 33.9827 31.5351V25.3415C33.9825 25.2278 34.0125 25.1161 34.0696 25.0177C34.1266 24.9193 34.2087 24.8378 34.3075 24.7815L39.6723 21.6847C39.7705 21.6276 39.8821 21.5976 39.9957 21.5976C40.1093 21.5976 40.2208 21.6276 40.3191 21.6847L41.6631 22.4603C41.6975 22.4798 41.7364 22.49 41.776 22.4899C41.8155 22.4897 41.8544 22.4792 41.8886 22.4594C41.9229 22.4396 41.9514 22.4111 41.9712 22.3769C41.9911 22.3427 42.0016 22.3039 42.0019 22.2643V14.0295C42.0029 13.9732 42.018 13.918 42.0459 13.8691C42.0738 13.8202 42.1135 13.779 42.1615 13.7495M60.6667 26.7583C60.6671 26.8717 60.6375 26.9832 60.5809 27.0816C60.5244 27.1799 60.4429 27.2616 60.3447 27.3183L57.1275 29.1859C57.0777 29.2133 57.0219 29.2277 56.9651 29.2277C56.9083 29.2277 56.8524 29.2133 56.8027 29.1859C56.7542 29.1567 56.7139 29.1157 56.6855 29.0667C56.6571 29.0178 56.6416 28.9625 56.6403 28.9059V27.3799C56.6393 27.3236 56.6241 27.2684 56.5962 27.2195C56.5683 27.1706 56.5286 27.1294 56.4807 27.0999L54.8007 26.1311C54.7519 26.1008 54.6956 26.0848 54.6383 26.0848C54.5809 26.0848 54.5246 26.1008 54.4759 26.1311L52.7959 27.0999C52.7479 27.1294 52.7082 27.1706 52.6803 27.2195C52.6524 27.2684 52.6373 27.3236 52.6363 27.3799V29.3231C52.6363 29.4351 52.6979 29.5471 52.7987 29.6031L58.1943 32.6971C58.2444 32.7254 58.286 32.7665 58.315 32.8162C58.344 32.8659 58.3593 32.9224 58.3593 32.9799C58.3593 33.0374 58.344 33.0939 58.315 33.1436C58.286 33.1933 58.2444 33.2344 58.1943 33.2627L54.9687 35.0547C54.8713 35.1088 54.7615 35.1367 54.6501 35.1358C54.5387 35.1348 54.4295 35.1049 54.3331 35.0491L49.0047 32.0111C48.9059 31.9547 48.8238 31.8732 48.7668 31.7749C48.7097 31.6765 48.6797 31.5648 48.6799 31.4511V25.2575C48.6795 25.1441 48.709 25.0325 48.7656 24.9342C48.8221 24.8359 48.9036 24.7542 49.0019 24.6975L54.3667 21.6035C54.4649 21.5464 54.5765 21.5164 54.6901 21.5164C54.8037 21.5164 54.9152 21.5464 55.0135 21.6035L60.3447 24.6975C60.4429 24.7542 60.5244 24.8359 60.5809 24.9342C60.6375 25.0325 60.6671 25.1441 60.6667 25.2575V26.7583ZM32.3447 48.0075C32.1584 48.0058 31.9756 47.9577 31.8127 47.8675L30.1271 46.8651C29.8751 46.7251 29.9983 46.6747 30.0795 46.6467C30.3478 46.5634 30.6046 46.4467 30.8439 46.2995C30.8849 46.2808 30.9269 46.2836 30.9699 46.3079L32.2663 47.0779C32.3139 47.1031 32.3783 47.1031 32.4231 47.0779L37.4799 44.1575C37.5032 44.1428 37.5225 44.1226 37.5362 44.0987C37.5499 44.0748 37.5574 44.0478 37.5583 44.0203V38.1851C37.5583 38.1291 37.5303 38.0731 37.4799 38.0451L32.4259 35.1303C32.4017 35.1175 32.3748 35.1109 32.3475 35.1109C32.3201 35.1109 32.2932 35.1175 32.2691 35.1303L27.2151 38.0451C27.1908 38.0597 27.1707 38.0802 27.1565 38.1047C27.1423 38.1291 27.1345 38.1568 27.1339 38.1851V44.0175C27.1339 44.0735 27.1647 44.1267 27.2123 44.1519L28.5983 44.9527C29.3487 45.3279 29.8079 44.8855 29.8079 44.4403V38.6807C29.8079 38.5967 29.8751 38.5351 29.9563 38.5351H30.5975C30.6759 38.5351 30.7431 38.5967 30.7431 38.6807V44.4431C30.7431 45.4455 30.1943 46.0195 29.2451 46.0195C28.9511 46.0195 28.7215 46.0195 28.0775 45.7031L26.7531 44.9387C26.5909 44.8451 26.4564 44.7104 26.363 44.5481C26.2696 44.3859 26.2206 44.2019 26.2211 44.0147V38.1823C26.2206 37.9951 26.2696 37.8111 26.363 37.6488C26.4564 37.4866 26.5909 37.3519 26.7531 37.2583L31.8155 34.3379C31.9789 34.2497 32.1617 34.2035 32.3475 34.2035C32.5332 34.2035 32.716 34.2497 32.8795 34.3379L37.9335 37.2611C38.0952 37.3544 38.2295 37.4887 38.3228 37.6504C38.4162 37.8121 38.4654 37.9956 38.4655 38.1823V44.0175C38.4659 44.2047 38.417 44.3887 38.3236 44.5509C38.2301 44.7132 38.0956 44.8479 37.9335 44.9415L32.8767 47.8591C32.714 47.9502 32.5311 47.9993 32.3447 48.0019M33.9071 43.9811C31.6951 43.9811 31.2303 42.9647 31.2303 42.1135C31.2303 42.0295 31.2975 41.9679 31.3787 41.9679H32.0311C32.0659 41.9669 32.0999 41.979 32.1263 42.0018C32.1527 42.0246 32.1697 42.0564 32.1739 42.0911C32.2747 42.7575 32.5659 43.0935 33.9043 43.0935C34.9711 43.0935 35.4247 42.8499 35.4247 42.2871C35.4247 41.9595 35.2959 41.7187 33.6383 41.5591C32.2551 41.4191 31.3983 41.1139 31.3983 40.0079C31.3983 38.9887 32.2607 38.3783 33.7027 38.3783C35.3211 38.3783 36.1219 38.9411 36.2227 40.1479C36.2246 40.1681 36.2223 40.1886 36.2159 40.2079C36.2094 40.2272 36.199 40.245 36.1853 40.26C36.1716 40.2751 36.1549 40.287 36.1362 40.2952C36.1176 40.3034 36.0974 40.3076 36.0771 40.3075H35.4191C35.3863 40.3081 35.3544 40.2973 35.3288 40.2768C35.3032 40.2564 35.2856 40.2276 35.2791 40.1955C35.1195 39.4955 34.7387 39.2715 33.6999 39.2715C32.5351 39.2715 32.4007 39.6747 32.4007 39.9799C32.4007 40.3495 32.5603 40.4559 34.1283 40.6631C35.6851 40.8703 36.4243 41.1615 36.4243 42.2535C36.4243 43.3539 35.5003 43.9867 33.9015 43.9867L33.9071 43.9811ZM40.0615 37.7959H40.2295C40.3695 37.7959 40.3975 37.7007 40.3975 37.6419C40.3975 37.4935 40.2939 37.4935 40.2351 37.4935H40.0615V37.7959ZM39.8543 37.3199H40.2295C40.3583 37.3199 40.6131 37.3199 40.6131 37.6083C40.6131 37.8071 40.4843 37.8491 40.4059 37.8743C40.5543 37.8855 40.5655 37.9807 40.5851 38.1123V38.1235L40.5879 38.1347C40.5991 38.2215 40.6159 38.3643 40.6439 38.4147H40.4115L40.4087 38.3783L40.3695 38.0703C40.3555 38.0059 40.3331 37.9751 40.2575 37.9751H40.0643V38.4147H39.8543V37.3199ZM41.1927 37.8631C41.1932 38.0566 41.1363 38.2459 41.0291 38.407C40.922 38.5682 40.7694 38.6939 40.5907 38.7682C40.412 38.8425 40.2153 38.8621 40.0255 38.8244C39.8357 38.7868 39.6613 38.6937 39.5245 38.5569C39.3876 38.42 39.2945 38.2457 39.2569 38.0558C39.2193 37.866 39.2389 37.6693 39.3132 37.4906C39.3875 37.312 39.5132 37.1594 39.6743 37.0522C39.8354 36.945 40.0248 36.8881 40.2183 36.8887C40.7447 36.8887 41.1927 37.3143 41.1927 37.8659M54.6103 27.0243C54.6288 27.0116 54.6508 27.0049 54.6733 27.0049C54.6957 27.0049 54.7177 27.0116 54.7363 27.0243L55.7639 27.6179C55.7824 27.6297 55.7979 27.6458 55.8091 27.6648C55.8203 27.6838 55.8269 27.7051 55.8283 27.7271V28.9143C55.8264 28.961 55.8049 28.9964 55.7639 29.0207L54.7363 29.6171C54.7177 29.6297 54.6957 29.6365 54.6733 29.6365C54.6508 29.6365 54.6288 29.6297 54.6103 29.6171L53.5827 29.0207C53.5631 29.0109 53.5469 28.9956 53.536 28.9767C53.525 28.9578 53.5198 28.9361 53.5211 28.9143V27.7271C53.5211 27.6804 53.5416 27.644 53.5827 27.6179L54.6103 27.0243ZM25.7927 21.7743C25.6915 21.7169 25.5772 21.6867 25.4609 21.6867C25.3445 21.6867 25.2302 21.7169 25.1291 21.7743L19.6187 24.9523C19.5183 25.0115 19.4351 25.0958 19.3771 25.197C19.3192 25.2981 19.2886 25.4125 19.2883 25.5291V31.8935C19.2883 32.1287 19.4171 32.3499 19.6243 32.4675L25.1291 35.6483C25.2302 35.7057 25.3445 35.7359 25.4609 35.7359C25.5772 35.7359 25.6915 35.7057 25.7927 35.6483L31.2975 32.4675C31.3979 32.4088 31.4815 32.3251 31.5399 32.2245C31.5983 32.1239 31.6296 32.0098 31.6307 31.8935V25.5291C31.63 25.4123 31.599 25.2976 31.5406 25.1965C31.4821 25.0953 31.3983 25.0112 31.2975 24.9523L25.7927 21.7743Z" fill="#182359"/>
</g>
<defs>
<clipPath id="clip0_702_3214">
<rect width="56" height="56" fill="white"/>
</clipPath>
</defs>
</svg>
