<svg width="56" height="56" viewBox="0 0 56 56" fill="none" xmlns="http://www.w3.org/2000/svg">
<g clip-path="url(#clip0_206_4370)">
<path d="M28 42.1867C12.53 42.1867 0 35.84 0 28C0 20.16 12.53 13.8133 28 13.8133C43.47 13.8133 56 20.16 56 28C56 35.84 43.47 42.1867 28 42.1867ZM15.89 23.6367C17.15 23.6367 18.0133 23.87 18.4333 24.36C18.8533 24.8267 18.9467 25.6667 18.7367 26.7633C18.5033 28 18.06 28.7933 17.3833 29.3067C16.73 29.82 15.7267 30.0767 14.3733 30.0767H12.3433L13.58 23.6367H15.89ZM7.72333 36.5867H11.0833L11.8767 32.5033H14.7467C16.0067 32.5033 17.0333 32.3633 17.85 32.1067C18.6667 31.8267 19.4133 31.3833 20.09 30.7533C20.65 30.24 21.0933 29.68 21.4433 29.05C21.7933 28.4433 22.05 27.7433 22.1667 26.9967C22.54 25.1767 22.2833 23.7533 21.3967 22.75C20.4867 21.7233 19.0867 21.2333 17.15 21.2333H10.71L7.72333 36.5867M24.64 17.15L21.6533 32.5033H24.9667L26.6933 23.7067H29.3533C30.1933 23.7067 30.7533 23.8467 31.01 24.1267C31.2667 24.4067 31.3133 24.92 31.1733 25.6667L29.8433 32.5033H33.2267L34.6033 25.34C34.9067 23.8933 34.6733 22.8433 33.9733 22.1667C33.2733 21.5367 31.99 21.2333 30.1233 21.2333H27.16L28 17.15H24.64M42 23.6367C43.2833 23.6367 44.1233 23.87 44.5433 24.36C44.9633 24.8267 45.0567 25.6667 44.8467 26.7633C44.6133 28 44.17 28.7933 43.5167 29.3067C42.84 29.82 41.8367 30.0767 40.4833 30.0767H38.5L39.6667 23.6367H42M33.8333 36.5867H37.1933L37.9867 32.5033H40.8333C42.1167 32.5033 43.1667 32.3633 43.9833 32.1067C44.8 31.8267 45.5 31.3833 46.2 30.7533C46.76 30.24 47.2267 29.68 47.5533 29.05C47.9033 28.4433 48.16 27.7433 48.3 26.9967C48.65 25.1767 48.3933 23.7533 47.5067 22.75C46.6667 21.7233 45.1967 21.2333 43.26 21.2333H36.8433L33.8333 36.5867V36.5867Z" fill="#182359"/>
</g>
<defs>
<clipPath id="clip0_206_4370">
<rect width="56" height="56" fill="white"/>
</clipPath>
</defs>
</svg>
