<svg width="56" height="56" viewBox="0 0 56 56" fill="none" xmlns="http://www.w3.org/2000/svg">
<g clip-path="url(#clip0_206_879)">
<path d="M41.538 19.9734C41.538 19.9734 36.9973 34.2137 36.6263 35.3897C35.4829 26.4649 34.3287 17.5414 33.1637 8.61938C25.4263 8.61938 21.2893 14.1261 19.103 19.9384L13.118 35.4247C13.083 34.3141 12.278 20.1064 12.278 20.1064C11.802 12.985 5.278 8.64972 0 8.64972L6.391 47.383C14.497 47.348 18.8673 41.8741 21.1563 36.0617C21.1563 36.0617 26.033 23.4664 26.2337 22.8947C26.2687 23.4314 29.7337 47.3807 29.7337 47.3807C37.8723 47.3807 42.245 42.2427 44.597 36.6334L56 8.65205C47.9617 8.65205 43.7243 14.1261 41.538 19.9711V19.9734Z" fill="#182359"/>
</g>
<defs>
<clipPath id="clip0_206_879">
<rect width="56" height="56" fill="white"/>
</clipPath>
</defs>
</svg>
