<svg width="65" height="64" viewBox="0 0 65 64" fill="none" xmlns="http://www.w3.org/2000/svg">
<g opacity="0.75" clip-path="url(#clip0_190_2343)">
<path d="M61.5626 2H58.7496V2.896C54.8336 3.772 54.2706 7.407 54.0496 8.796C53.9446 9.453 53.7316 10.738 53.4676 12.312H4.48762C2.54962 12.312 2.33262 14.123 2.58562 15.125L8.33162 40.492C8.58362 41.494 9.64462 42.312 10.6846 42.312H53.6286C54.6626 42.312 55.5056 43.153 55.5056 44.187C55.5056 45.221 54.6626 46.062 53.6286 46.062H6.75462C6.25734 46.062 5.78043 46.2595 5.4288 46.6112C5.07717 46.9628 4.87962 47.4397 4.87962 47.937C4.87962 48.4343 5.07717 48.9112 5.4288 49.2628C5.78043 49.6145 6.25734 49.812 6.75462 49.812H9.18462C8.01133 50.4598 7.03321 51.4103 6.3522 52.5646C5.67118 53.7189 5.31219 55.0348 5.31262 56.375H7.18762C7.18762 59.48 9.70762 62 12.8126 62C15.9176 62 18.4376 59.48 18.4376 56.375H20.3126C20.3129 55.0347 19.9537 53.7188 19.2725 52.5645C18.5913 51.4102 17.613 50.4597 16.4396 49.812H42.9336C41.7602 50.4597 40.782 51.4102 40.1008 52.5645C39.4196 53.7188 39.0604 55.0347 39.0606 56.375H40.9356C40.9634 57.8487 41.5684 59.2527 42.6204 60.2851C43.6725 61.3176 45.0876 61.8959 46.5616 61.8959C48.0356 61.8959 49.4508 61.3176 50.5028 60.2851C51.5549 59.2527 52.1598 57.8487 52.1876 56.375H54.0626C54.0627 55.0348 53.7036 53.7191 53.0226 52.5649C52.3417 51.4106 51.3637 50.46 50.1906 49.812H53.6306C55.1222 49.8112 56.5525 49.2183 57.6072 48.1636C58.6619 47.1089 59.2548 45.6786 59.2556 44.187C59.2555 43.4482 59.1098 42.7166 58.827 42.0341C58.5441 41.3516 58.1296 40.7314 57.6071 40.2091C57.0846 39.6868 56.4643 39.2725 55.7817 38.9899C55.0991 38.7073 54.3674 38.5619 53.6286 38.562H52.9316L55.3296 23.652C55.9976 19.714 57.4376 11.207 57.7756 9.091C57.9456 8.022 58.1106 7.271 58.7496 6.85V7.624H61.5626C61.8107 7.62321 62.0484 7.52438 62.224 7.34904C62.3995 7.17371 62.4986 6.93609 62.4996 6.688V2.938C62.4991 2.68956 62.4002 2.45144 62.2247 2.27567C62.0491 2.09991 61.8111 2.0008 61.5626 2ZM12.8126 59.188C12.0668 59.1872 11.3518 58.8906 10.8244 58.3632C10.297 57.8358 10.0004 57.1208 9.99962 56.375H15.6246C15.6238 57.1206 15.3273 57.8355 14.8002 58.3629C14.273 58.8902 13.5583 59.1869 12.8126 59.188ZM46.5626 59.188C45.8166 59.1875 45.1013 58.891 44.5738 58.3636C44.0462 57.8362 43.7494 57.121 43.7486 56.375H49.3756C49.3743 57.1207 49.0775 57.8354 48.5503 58.3626C48.023 58.8899 47.3083 59.1867 46.5626 59.188ZM44.2556 16.994C44.2886 16.7399 44.4118 16.506 44.6026 16.3349C44.7935 16.1639 45.0394 16.0671 45.2956 16.062H51.2326C51.7486 16.062 52.1076 16.478 52.0266 16.989L51.4386 20.76C51.3606 21.27 50.8716 21.687 50.3546 21.687H44.6916C44.5724 21.6902 44.4539 21.6674 44.3442 21.6204C44.2346 21.5734 44.1364 21.5032 44.0565 21.4147C43.9766 21.3261 43.9168 21.2213 43.8813 21.1074C43.8457 20.9935 43.8353 20.8733 43.8506 20.755L44.2556 16.994ZM43.2466 26.369C43.2802 26.1151 43.4035 25.8816 43.5943 25.7107C43.785 25.5397 44.0306 25.4427 44.2866 25.437H49.7696C50.2866 25.437 50.6446 25.853 50.5666 26.364L50.1236 29.198C50.0446 29.708 49.5566 30.125 49.0396 30.125H43.7826C43.6635 30.1278 43.5451 30.1049 43.4356 30.0578C43.3262 30.0106 43.2282 29.9404 43.1483 29.8519C43.0685 29.7635 43.0087 29.6588 42.973 29.5451C42.9373 29.4313 42.9266 29.3112 42.9416 29.193L43.2466 26.369ZM7.36562 20.777L6.41562 16.972C6.29162 16.47 6.61362 16.062 7.13062 16.062H14.1896C14.7076 16.062 15.1746 16.481 15.2296 16.994L15.6336 20.756C15.6486 20.8742 15.6379 20.9942 15.6023 21.1078C15.5667 21.2215 15.507 21.3261 15.4273 21.4146C15.3475 21.503 15.2496 21.5732 15.1403 21.6204C15.0309 21.6676 14.9127 21.6907 14.7936 21.688H8.53262C8.01662 21.688 7.49062 21.277 7.36562 20.777ZM10.6366 30.125C10.1206 30.125 9.59462 29.715 9.47062 29.215L8.75462 26.348C8.62962 25.846 8.94962 25.438 9.46662 25.438H15.1956C15.7126 25.438 16.1806 25.857 16.2356 26.37L16.5396 29.194C16.5548 29.3122 16.5442 29.4323 16.5087 29.546C16.4731 29.6597 16.4134 29.7644 16.3337 29.8529C16.2539 29.9414 16.1559 30.0116 16.0465 30.0588C15.9371 30.1059 15.8187 30.1288 15.6996 30.126H10.6366V30.125ZM67.5316 10.438H63.6666C63.1476 10.438 62.6246 10.028 62.4996 9.528L61.7836 6.661C61.6596 6.159 61.9796 5.75101 62.4976 5.75101H67.0276C67.5446 5.75101 68.0126 6.17 68.0696 6.683L68.3716 9.507C68.3868 9.62514 68.3763 9.74516 68.3407 9.85884C68.3051 9.97252 68.2454 10.0772 68.1656 10.1656C68.0858 10.254 67.9879 10.3242 67.8784 10.3712C67.769 10.4182 67.6507 10.441 67.5316 10.438ZM79.0236 9.5C79.0226 9.7488 78.9231 9.98707 78.747 10.1628C78.5709 10.3385 78.3324 10.4375 78.0836 10.438H73.1926C72.9366 10.4327 72.6909 10.3358 72.5002 10.1647C72.3096 9.99372 72.1866 9.75999 72.1536 9.506L71.8496 6.682C71.8341 6.56384 71.8444 6.44373 71.8798 6.32993C71.9151 6.21613 71.9747 6.11134 72.0545 6.02277C72.1342 5.9342 72.2322 5.86395 72.3417 5.81687C72.4511 5.76978 72.5695 5.74697 72.6886 5.75H78.0836C78.3326 5.75 78.5714 5.84876 78.7476 6.02462C78.9238 6.20047 79.0231 6.43905 79.0236 6.688V9.5ZM79.0236 1.063C79.0226 1.3118 78.9231 1.55007 78.747 1.72581C78.5709 1.90155 78.3324 2.00048 78.0836 2.001H21.3596C20.8436 2.001 20.3776 1.582 20.3196 1.069L20.0176 -1.755C20.0023 -1.87313 20.0127 -1.99317 20.0481 -2.1069C20.0836 -2.22062 20.1432 -2.32534 20.2229 -2.41387C20.3026 -2.5024 20.4005 -2.57265 20.5099 -2.61979C20.6192 -2.66694 20.7375 -2.68986 20.8566 -2.687H27.1576C27.4066 -2.687 27.6454 -2.58824 27.8216 -2.41238C27.9978 -2.23653 28.0971 -1.99795 28.0976 -1.749V1.063M28.0976 -7.375C28.0966 -7.1262 27.9971 -6.88793 27.821 -6.71219C27.6449 -6.53645 27.4064 -6.43752 27.1576 -6.437H20.4556C20.1994 -6.44205 19.9535 -6.5389 19.7626 -6.70994C19.5718 -6.88098 19.4486 -7.11485 19.4156 -7.369L19.0116 -11.131C18.9965 -11.2492 19.007 -11.3692 19.0426 -11.483C19.0781 -11.5967 19.1378 -11.7014 19.2176 -11.7899C19.2974 -11.8784 19.3953 -11.9486 19.5047 -11.9958C19.6142 -12.0429 19.7325 -12.0658 19.8516 -12.063H27.1586C27.4076 -12.063 27.6464 -11.9642 27.8226 -11.7884C27.9988 -11.6125 28.0981 -11.374 28.0986 -11.125V-7.375H28.0976ZM77.6906 27.319C77.6574 27.5731 77.5342 27.8068 77.3434 27.9778C77.1526 28.1488 76.9068 28.2458 76.6506 28.251H72.2306C71.9819 28.2505 71.7435 28.1515 71.5676 27.9757C71.3916 27.8 71.2924 27.5617 71.2916 27.313V24.5C71.2922 24.2512 71.3913 24.0128 71.5673 23.837C71.7433 23.6611 71.9818 23.5623 72.2306 23.562H77.1546C77.6706 23.562 78.0506 23.981 77.9946 24.494L77.6906 27.319ZM78.5966 18.881C78.5634 19.1351 78.4402 19.3688 78.2494 19.5398C78.0586 19.7108 77.8128 19.8077 77.5566 19.813H72.2306C71.9819 19.8125 71.7435 19.7135 71.5676 19.5377C71.3916 19.362 71.2924 19.1237 71.2916 18.875V16.062C71.2922 15.8132 71.3913 15.5748 71.5673 15.399C71.7433 15.2231 71.9818 15.1243 72.2306 15.124H78.0606C78.5776 15.124 78.9566 15.543 78.8996 16.056L78.5966 18.881ZM79.5026 10.444C79.4694 10.6981 79.3462 10.9318 79.1554 11.1028C78.9646 11.2738 78.7188 11.3707 78.4626 11.376H72.2306C71.9819 11.3755 71.7435 11.2765 71.5676 11.1007C71.3916 10.925 71.2924 10.6867 71.2916 10.438V17C71.2922 16.7512 71.3913 16.5128 71.5673 16.337C71.7433 16.1611 71.9818 16.0623 72.2306 16.062H79.0676C79.5846 16.062 79.9636 16.481 79.9086 16.994L79.5026 20.756M86.7346 38.563V38.556L86.7266 38.563H82.3106C82.2816 38.563 82.2566 38.549 82.2276 38.545C82.2226 38.511 82.2226 38.477 82.2166 38.441L82.1726 38.533C82.1848 38.5363 82.1972 38.5389 82.2096 38.541C81.7486 38.488 81.4186 38.107 81.4716 37.631L81.7736 34.807C81.8072 34.5531 81.9305 34.3196 82.1213 34.1487C82.312 33.9777 82.5576 33.8807 82.8136 33.875H87.8896C88.4066 33.875 88.7626 34.291 88.6846 34.802L88.2416 37.636C88.1646 38.146 87.6766 38.563 87.1596 38.563H86.7346Z" fill="white"/>
</g>
<defs>
<clipPath id="clip0_190_2343">
<rect width="64" height="64" fill="white" transform="translate(0.5)"/>
</clipPath>
</defs>
</svg>
