<svg width="96" height="96" viewBox="0 0 96 96" fill="none" xmlns="http://www.w3.org/2000/svg">
<path opacity="0.3" d="M48 16C30.36 16 16 30.36 16 48C16 65.64 30.36 80 48 80C65.64 80 80 65.64 80 48C80 30.36 65.64 16 48 16ZM28 28H56V36H28V28ZM28 40H56V48H28V40ZM40 60H28V52H40V60ZM56.2 73.44L44.88 62.12L50.52 56.48L56.16 62.12L70.36 48L76 53.64L56.2 73.44Z" fill="white"/>
<path d="M48 16C65.64 16 80 30.36 80 48C80 65.64 65.64 80 48 80C30.36 80 16 65.64 16 48C16 30.36 30.36 16 48 16ZM48 8C25.92 8 8 25.92 8 48C8 70.08 25.92 88 48 88C70.08 88 88 70.08 88 48C88 25.92 70.08 8 48 8ZM56 40H28V48H56V40ZM56 28H28V36H56V28ZM28 60H40V52H28V60ZM76 53.64L70.36 48L56.2 62.16L50.56 56.52L44.92 62.16L56.24 73.48L76 53.64Z" fill="white"/>
</svg>
