<svg width="96" height="96" viewBox="0 0 96 96" fill="none" xmlns="http://www.w3.org/2000/svg">
<path d="M52 48.7V36C52 34.8667 51.6173 33.916 50.852 33.148C50.084 32.3827 49.1333 32 48 32C46.8667 32 45.9173 32.3827 45.152 33.148C44.384 33.916 44 34.8667 44 36V48C44 49.3333 44.2333 50.5667 44.7 51.7C45.1667 52.8333 45.8667 53.8667 46.8 54.8L55.3 63.3C56.1 64.1 57.0507 64.5 58.152 64.5C59.2507 64.5 60.2 64.1 61 63.3C61.7333 62.5 62.1 61.5507 62.1 60.452C62.1 59.3507 61.7333 58.4333 61 57.7L52 48.7ZM48 16C46.8667 16 45.9173 16.3827 45.152 17.148C44.384 17.916 44 18.8667 44 20C44 21.1333 44.384 22.084 45.152 22.852C45.9173 23.6173 46.8667 24 48 24C49.1333 24 50.084 23.6173 50.852 22.852C51.6173 22.084 52 21.1333 52 20C52 18.8667 51.6173 17.916 50.852 17.148C50.084 16.3827 49.1333 16 48 16ZM80 48C80 46.8667 79.616 45.916 78.848 45.148C78.0827 44.3827 77.1333 44 76 44C74.8667 44 73.9173 44.3827 73.152 45.148C72.384 45.916 72 46.8667 72 48C72 49.1333 72.384 50.0827 73.152 50.848C73.9173 51.616 74.8667 52 76 52C77.1333 52 78.0827 51.616 78.848 50.848C79.616 50.0827 80 49.1333 80 48ZM48 72C46.8667 72 45.9173 72.384 45.152 73.152C44.384 73.9173 44 74.8667 44 76C44 77.1333 44.384 78.0827 45.152 78.848C45.9173 79.616 46.8667 80 48 80C49.1333 80 50.084 79.616 50.852 78.848C51.6173 78.0827 52 77.1333 52 76C52 74.8667 51.6173 73.9173 50.852 73.152C50.084 72.384 49.1333 72 48 72ZM24 48C24 46.8667 23.6173 45.916 22.852 45.148C22.084 44.3827 21.1333 44 20 44C18.8667 44 17.916 44.3827 17.148 45.148C16.3827 45.916 16 46.8667 16 48C16 49.1333 16.3827 50.0827 17.148 50.848C17.916 51.616 18.8667 52 20 52C21.1333 52 22.084 51.616 22.852 50.848C23.6173 50.0827 24 49.1333 24 48ZM48 88C42.4667 88 37.2667 86.9493 32.4 84.848C27.5333 82.7493 23.3 79.9 19.7 76.3C16.1 72.7 13.2507 68.4667 11.152 63.6C9.05067 58.7333 8 53.5333 8 48C8 42.4667 9.05067 37.2667 11.152 32.4C13.2507 27.5333 16.1 23.3 19.7 19.7C23.3 16.1 27.5333 13.2493 32.4 11.148C37.2667 9.04933 42.4667 8 48 8C53.5333 8 58.7333 9.04933 63.6 11.148C68.4667 13.2493 72.7 16.1 76.3 19.7C79.9 23.3 82.7493 27.5333 84.848 32.4C86.9493 37.2667 88 42.4667 88 48C88 53.5333 86.9493 58.7333 84.848 63.6C82.7493 68.4667 79.9 72.7 76.3 76.3C72.7 79.9 68.4667 82.7493 63.6 84.848C58.7333 86.9493 53.5333 88 48 88Z" fill="white"/>
</svg>
