<svg width="129" height="114" viewBox="0 0 129 114" fill="none" xmlns="http://www.w3.org/2000/svg">
<path opacity="0.2" d="M64.4999 100.5C56.4999 100.5 43.2499 100.4 28.0499 91.6C12.8499 82.8 7.8999 71.85 6.3499 66.2C6.20714 65.691 6.16799 65.1586 6.23477 64.6342C6.30156 64.1099 6.47291 63.6042 6.73867 63.1473C7.00444 62.6904 7.35922 62.2914 7.78199 61.9741C8.20476 61.6568 8.68691 61.4276 9.19989 61.3C12.8499 60.35 19.2499 59.5 27.4499 61.4C24.0999 50.3 25.7999 41.65 27.2499 37.3C27.5509 36.3553 28.1962 35.5584 29.0577 35.0674C29.9191 34.5765 30.9337 34.4275 31.8999 34.65C37.6208 35.9495 42.972 38.5311 47.5499 42.2C45.4652 48.0732 44.4327 54.2681 44.4999 60.5C44.4999 89.6 64.4999 100.5 64.4999 100.5ZM119.8 61.3C116.15 60.35 109.75 59.5 101.55 61.4C104.9 50.3 103.2 41.65 101.75 37.3C101.449 36.3553 100.804 35.5584 99.9421 35.0674C99.0807 34.5765 98.0661 34.4275 97.0999 34.65C91.379 35.9495 86.0278 38.5311 81.4499 42.2C83.5346 48.0732 84.5671 54.2681 84.4999 60.5C84.4999 89.6 64.4999 100.5 64.4999 100.5C72.4999 100.5 85.7499 100.4 100.95 91.6C116.15 82.8 121.1 71.85 122.65 66.2C122.793 65.691 122.832 65.1586 122.765 64.6342C122.698 64.1099 122.527 63.6042 122.261 63.1473C121.995 62.6904 121.641 62.2914 121.218 61.9741C120.795 61.6568 120.313 61.4276 119.8 61.3Z" fill="#DDE3EE"/>
<path d="M125.749 61.15C125.218 60.2248 124.506 59.416 123.656 58.7717C122.805 58.1275 121.834 57.661 120.799 57.4C116.243 56.2524 111.515 55.9474 106.849 56.5C108.056 49.6774 107.611 42.6649 105.549 36.05C104.948 34.1684 103.667 32.5782 101.957 31.5892C100.247 30.6001 98.2302 30.2832 96.2993 30.7C91.6532 31.729 87.2208 33.5561 83.1992 36.1C79.9934 29.3468 75.2293 23.4517 69.2993 18.9C67.9178 17.8537 66.2322 17.2874 64.4993 17.2874C62.7663 17.2874 61.0807 17.8537 59.6993 18.9C53.7692 23.4517 49.0051 29.3468 45.7993 36.1C41.7777 33.5561 37.3453 31.729 32.6993 30.7C30.7683 30.2832 28.7514 30.6001 27.0414 31.5892C25.3314 32.5782 24.0508 34.1684 23.4493 36.05C21.3879 42.6649 20.9421 49.6774 22.1493 56.5C17.4833 55.9474 12.7555 56.2524 8.19925 57.4C7.16585 57.6604 6.19535 58.1258 5.34542 58.7687C4.49549 59.4116 3.7835 60.2188 3.25176 61.1424C2.72002 62.0659 2.37939 63.087 2.25011 64.1448C2.12084 65.2026 2.20557 66.2756 2.49925 67.3C4.24925 73.6 9.64925 85.65 26.0492 95.1C42.4492 104.55 56.7493 104.5 64.4493 104.5H64.5493C72.2493 104.5 86.6492 104.5 102.949 95.1C119.249 85.7 124.749 73.6 126.499 67.3C126.789 66.2765 126.873 65.2055 126.744 64.1495C126.615 63.0935 126.277 62.0738 125.749 61.15ZM97.9492 38.55C99.3493 42.75 100.649 50.3 97.7993 60L97.6493 60.55C96.4914 64.3067 94.8972 67.9146 92.8993 71.3C90.4743 75.4859 87.5532 79.3639 84.1992 82.85C86.7493 76.85 88.4993 69.5 88.4993 60.5C88.5406 54.8153 87.7489 49.1552 86.1493 43.7C89.7101 41.2321 93.7183 39.4827 97.9492 38.55ZM64.4993 25.3C69.2993 28.9 80.4993 39.5 80.4993 60.5C80.4993 81.5 69.1493 92.3 64.4993 95.7C59.8493 92.3 48.4993 81.75 48.4993 60.5C48.4993 39.25 59.6993 28.9 64.4993 25.3ZM31.0492 38.55C35.2802 39.4827 39.2884 41.2321 42.8493 43.7C41.2496 49.1552 40.4579 54.8153 40.4993 60.5C40.4993 69.5 42.2493 76.85 44.7993 82.85C41.4454 79.3639 38.5242 75.4859 36.0993 71.3C34.0914 67.9021 32.4968 64.2764 31.3493 60.5L31.1993 60.05C28.2993 50.3 29.6493 42.75 31.0492 38.55ZM10.1493 65.15C13.2493 64.35 18.0993 63.75 24.3493 64.85C25.6185 68.4843 27.243 71.9846 29.1993 75.3C33.4867 82.7079 39.116 89.2528 45.7993 94.6C40.2765 93.1879 34.9761 91.0173 30.0492 88.15C16.1493 80.1 11.6493 70.25 10.1493 65.15ZM98.9492 88.15C94.0224 91.0173 88.722 93.1879 83.1992 94.6C89.8825 89.2528 95.5118 82.7079 99.7993 75.3C101.756 71.9846 103.38 68.4843 104.649 64.85C109.332 63.9517 114.151 64.0369 118.799 65.1C117.349 70.25 112.849 80.1 98.9492 88.15Z" fill="#182359"/>
</svg>
