<svg width="566" height="359" viewBox="0 0 566 359" fill="none" xmlns="http://www.w3.org/2000/svg">
<g filter="url(#filter0_dddddd_1033_6691)">
<mask id="path-1-inside-1_1033_6691" fill="white">
<path d="M80.5 10C80.5 4.47716 84.9772 0 90.5 0H475.5C481.023 0 485.5 4.47715 485.5 10V169C485.5 174.523 481.023 179 475.5 179H90.5C84.9771 179 80.5 174.523 80.5 169V10Z"/>
</mask>
<path d="M80.5 10C80.5 4.47716 84.9772 0 90.5 0H475.5C481.023 0 485.5 4.47715 485.5 10V169C485.5 174.523 481.023 179 475.5 179H90.5C84.9771 179 80.5 174.523 80.5 169V10Z" fill="#C3D9C4"/>
<path d="M157.504 43.608C157.504 44.568 157.256 45.376 156.76 46.032C156.264 46.672 155.592 47.16 154.744 47.496C153.912 47.832 153 48 152.008 48H143.776V30.96H152.896C153.696 30.96 154.384 31.176 154.96 31.608C155.552 32.024 156 32.568 156.304 33.24C156.624 33.896 156.784 34.584 156.784 35.304C156.784 36.12 156.576 36.896 156.16 37.632C155.744 38.368 155.136 38.912 154.336 39.264C155.312 39.552 156.08 40.072 156.64 40.824C157.216 41.576 157.504 42.504 157.504 43.608ZM154.168 42.984C154.168 42.552 154.08 42.168 153.904 41.832C153.728 41.48 153.488 41.208 153.184 41.016C152.896 40.808 152.56 40.704 152.176 40.704H147.088V45.192H152.008C152.408 45.192 152.768 45.096 153.088 44.904C153.424 44.696 153.688 44.424 153.88 44.088C154.072 43.752 154.168 43.384 154.168 42.984ZM147.088 33.792V38.088H151.504C151.872 38.088 152.208 38 152.512 37.824C152.816 37.648 153.056 37.4 153.232 37.08C153.424 36.76 153.52 36.376 153.52 35.928C153.52 35.496 153.432 35.12 153.256 34.8C153.096 34.48 152.872 34.232 152.584 34.056C152.312 33.88 152 33.792 151.648 33.792H147.088ZM167.265 38.208C166.289 38.208 165.417 38.4 164.648 38.784C163.881 39.152 163.329 39.688 162.993 40.392V48H159.777V35.424H162.729V38.112C163.177 37.248 163.745 36.568 164.433 36.072C165.121 35.576 165.849 35.304 166.617 35.256C166.793 35.256 166.929 35.256 167.025 35.256C167.121 35.256 167.201 35.264 167.265 35.28V38.208ZM168.123 44.28C168.123 43.464 168.347 42.752 168.795 42.144C169.259 41.52 169.899 41.04 170.715 40.704C171.531 40.368 172.467 40.2 173.523 40.2C174.051 40.2 174.587 40.24 175.131 40.32C175.675 40.4 176.147 40.528 176.547 40.704V40.032C176.547 39.232 176.307 38.616 175.827 38.184C175.363 37.752 174.667 37.536 173.739 37.536C173.051 37.536 172.395 37.656 171.771 37.896C171.147 38.136 170.491 38.488 169.803 38.952L168.771 36.84C169.603 36.296 170.451 35.888 171.315 35.616C172.195 35.344 173.115 35.208 174.075 35.208C175.867 35.208 177.259 35.656 178.251 36.552C179.259 37.448 179.763 38.728 179.763 40.392V44.4C179.763 44.736 179.819 44.976 179.931 45.12C180.059 45.264 180.259 45.352 180.531 45.384V48C180.243 48.048 179.979 48.088 179.739 48.12C179.515 48.152 179.323 48.168 179.163 48.168C178.523 48.168 178.035 48.024 177.699 47.736C177.379 47.448 177.179 47.096 177.099 46.68L177.027 46.032C176.483 46.736 175.803 47.28 174.987 47.664C174.171 48.048 173.339 48.24 172.491 48.24C171.659 48.24 170.907 48.072 170.235 47.736C169.579 47.384 169.059 46.912 168.675 46.32C168.307 45.712 168.123 45.032 168.123 44.28ZM175.947 44.928C176.123 44.736 176.267 44.544 176.379 44.352C176.491 44.16 176.547 43.984 176.547 43.824V42.552C176.163 42.392 175.747 42.272 175.299 42.192C174.851 42.096 174.427 42.048 174.027 42.048C173.195 42.048 172.507 42.232 171.963 42.6C171.435 42.952 171.171 43.424 171.171 44.016C171.171 44.336 171.259 44.64 171.435 44.928C171.611 45.216 171.867 45.448 172.203 45.624C172.539 45.8 172.939 45.888 173.403 45.888C173.883 45.888 174.355 45.8 174.819 45.624C175.283 45.432 175.659 45.2 175.947 44.928ZM182.001 41.712C182.001 40.496 182.241 39.4 182.721 38.424C183.201 37.432 183.865 36.648 184.713 36.072C185.561 35.496 186.529 35.208 187.617 35.208C188.545 35.208 189.377 35.44 190.113 35.904C190.865 36.352 191.449 36.928 191.865 37.632V30.48H195.081V44.4C195.081 44.736 195.137 44.976 195.249 45.12C195.361 45.264 195.553 45.352 195.825 45.384V48C195.265 48.112 194.809 48.168 194.457 48.168C193.881 48.168 193.401 48.024 193.017 47.736C192.649 47.448 192.441 47.072 192.393 46.608L192.345 45.816C191.881 46.6 191.249 47.2 190.449 47.616C189.665 48.032 188.841 48.24 187.977 48.24C187.113 48.24 186.313 48.072 185.577 47.736C184.857 47.4 184.225 46.936 183.681 46.344C183.153 45.752 182.737 45.064 182.433 44.28C182.145 43.48 182.001 42.624 182.001 41.712ZM191.865 43.392V40.392C191.705 39.928 191.449 39.512 191.097 39.144C190.745 38.776 190.353 38.488 189.921 38.28C189.489 38.056 189.057 37.944 188.625 37.944C188.129 37.944 187.681 38.048 187.281 38.256C186.881 38.464 186.529 38.744 186.225 39.096C185.937 39.448 185.713 39.856 185.553 40.32C185.409 40.784 185.337 41.272 185.337 41.784C185.337 42.296 185.417 42.784 185.577 43.248C185.753 43.696 186.001 44.088 186.321 44.424C186.641 44.76 187.009 45.024 187.425 45.216C187.857 45.408 188.321 45.504 188.817 45.504C189.121 45.504 189.425 45.456 189.729 45.36C190.049 45.248 190.345 45.104 190.617 44.928C190.905 44.736 191.153 44.512 191.361 44.256C191.585 43.984 191.753 43.696 191.865 43.392ZM198.455 50.448C198.743 50.512 199.007 50.568 199.247 50.616C199.503 50.664 199.719 50.688 199.895 50.688C200.199 50.688 200.447 50.608 200.639 50.448C200.847 50.304 201.047 50.032 201.239 49.632C201.431 49.248 201.631 48.704 201.839 48L196.871 35.424H200.207L203.591 44.712L206.567 35.424H209.639L204.359 50.496C204.167 51.056 203.871 51.56 203.471 52.008C203.087 52.472 202.599 52.832 202.007 53.088C201.431 53.36 200.783 53.496 200.063 53.496C199.807 53.496 199.551 53.472 199.295 53.424C199.039 53.392 198.759 53.328 198.455 53.232V50.448ZM216.82 48.24C215.796 48.24 214.876 48.072 214.06 47.736C213.244 47.384 212.548 46.904 211.972 46.296C211.396 45.672 210.948 44.968 210.628 44.184C210.324 43.4 210.172 42.576 210.172 41.712C210.172 40.528 210.436 39.448 210.964 38.472C211.508 37.48 212.276 36.688 213.268 36.096C214.26 35.504 215.436 35.208 216.796 35.208C218.156 35.208 219.324 35.504 220.3 36.096C221.276 36.688 222.004 37.464 222.484 38.424L219.34 39.384C219.068 38.92 218.708 38.568 218.26 38.328C217.812 38.072 217.316 37.944 216.772 37.944C216.164 37.944 215.604 38.104 215.092 38.424C214.596 38.728 214.204 39.168 213.916 39.744C213.628 40.304 213.484 40.96 213.484 41.712C213.484 42.448 213.628 43.104 213.916 43.68C214.22 44.24 214.62 44.688 215.116 45.024C215.612 45.344 216.164 45.504 216.772 45.504C217.156 45.504 217.516 45.44 217.852 45.312C218.204 45.184 218.516 45.008 218.788 44.784C219.06 44.56 219.26 44.304 219.388 44.016L222.532 44.976C222.244 45.6 221.82 46.16 221.26 46.656C220.716 47.152 220.068 47.544 219.316 47.832C218.58 48.104 217.748 48.24 216.82 48.24ZM223.647 44.28C223.647 43.464 223.871 42.752 224.319 42.144C224.783 41.52 225.423 41.04 226.239 40.704C227.055 40.368 227.991 40.2 229.047 40.2C229.575 40.2 230.111 40.24 230.655 40.32C231.199 40.4 231.671 40.528 232.071 40.704V40.032C232.071 39.232 231.831 38.616 231.351 38.184C230.887 37.752 230.191 37.536 229.263 37.536C228.575 37.536 227.919 37.656 227.295 37.896C226.671 38.136 226.015 38.488 225.327 38.952L224.295 36.84C225.127 36.296 225.975 35.888 226.839 35.616C227.719 35.344 228.639 35.208 229.599 35.208C231.391 35.208 232.783 35.656 233.775 36.552C234.783 37.448 235.287 38.728 235.287 40.392V44.4C235.287 44.736 235.343 44.976 235.455 45.12C235.583 45.264 235.783 45.352 236.055 45.384V48C235.767 48.048 235.503 48.088 235.263 48.12C235.039 48.152 234.847 48.168 234.687 48.168C234.047 48.168 233.559 48.024 233.223 47.736C232.903 47.448 232.703 47.096 232.623 46.68L232.551 46.032C232.007 46.736 231.327 47.28 230.511 47.664C229.695 48.048 228.863 48.24 228.015 48.24C227.183 48.24 226.431 48.072 225.759 47.736C225.103 47.384 224.583 46.912 224.199 46.32C223.831 45.712 223.647 45.032 223.647 44.28ZM231.471 44.928C231.647 44.736 231.791 44.544 231.903 44.352C232.015 44.16 232.071 43.984 232.071 43.824V42.552C231.687 42.392 231.271 42.272 230.823 42.192C230.375 42.096 229.951 42.048 229.551 42.048C228.719 42.048 228.031 42.232 227.487 42.6C226.959 42.952 226.695 43.424 226.695 44.016C226.695 44.336 226.783 44.64 226.959 44.928C227.135 45.216 227.391 45.448 227.727 45.624C228.063 45.8 228.463 45.888 228.927 45.888C229.407 45.888 229.879 45.8 230.343 45.624C230.807 45.432 231.183 45.2 231.471 44.928ZM245.78 38.208C244.804 38.208 243.932 38.4 243.164 38.784C242.396 39.152 241.844 39.688 241.508 40.392V48H238.292V35.424H241.244V38.112C241.692 37.248 242.26 36.568 242.948 36.072C243.636 35.576 244.364 35.304 245.132 35.256C245.308 35.256 245.444 35.256 245.54 35.256C245.636 35.256 245.716 35.264 245.78 35.28V38.208ZM246.688 41.712C246.688 40.496 246.928 39.4 247.408 38.424C247.888 37.432 248.552 36.648 249.4 36.072C250.248 35.496 251.216 35.208 252.304 35.208C253.232 35.208 254.064 35.44 254.8 35.904C255.552 36.352 256.136 36.928 256.552 37.632V30.48H259.768V44.4C259.768 44.736 259.824 44.976 259.936 45.12C260.048 45.264 260.24 45.352 260.512 45.384V48C259.952 48.112 259.496 48.168 259.144 48.168C258.568 48.168 258.088 48.024 257.704 47.736C257.336 47.448 257.128 47.072 257.08 46.608L257.032 45.816C256.568 46.6 255.936 47.2 255.136 47.616C254.352 48.032 253.528 48.24 252.664 48.24C251.8 48.24 251 48.072 250.264 47.736C249.544 47.4 248.912 46.936 248.368 46.344C247.84 45.752 247.424 45.064 247.12 44.28C246.832 43.48 246.688 42.624 246.688 41.712ZM256.552 43.392V40.392C256.392 39.928 256.136 39.512 255.784 39.144C255.432 38.776 255.04 38.488 254.608 38.28C254.176 38.056 253.744 37.944 253.312 37.944C252.816 37.944 252.368 38.048 251.968 38.256C251.568 38.464 251.216 38.744 250.912 39.096C250.624 39.448 250.4 39.856 250.24 40.32C250.096 40.784 250.024 41.272 250.024 41.784C250.024 42.296 250.104 42.784 250.264 43.248C250.44 43.696 250.688 44.088 251.008 44.424C251.328 44.76 251.696 45.024 252.112 45.216C252.544 45.408 253.008 45.504 253.504 45.504C253.808 45.504 254.112 45.456 254.416 45.36C254.736 45.248 255.032 45.104 255.304 44.928C255.592 44.736 255.84 44.512 256.048 44.256C256.272 43.984 256.44 43.696 256.552 43.392ZM262.925 48V35.424H266.141V48H262.925ZM262.925 33.672V30.48H266.141V33.672H262.925ZM268.178 44.28C268.178 43.464 268.402 42.752 268.85 42.144C269.314 41.52 269.954 41.04 270.77 40.704C271.586 40.368 272.522 40.2 273.578 40.2C274.106 40.2 274.642 40.24 275.186 40.32C275.73 40.4 276.202 40.528 276.602 40.704V40.032C276.602 39.232 276.362 38.616 275.882 38.184C275.418 37.752 274.722 37.536 273.794 37.536C273.106 37.536 272.45 37.656 271.826 37.896C271.202 38.136 270.546 38.488 269.858 38.952L268.826 36.84C269.658 36.296 270.506 35.888 271.37 35.616C272.25 35.344 273.17 35.208 274.13 35.208C275.922 35.208 277.314 35.656 278.306 36.552C279.314 37.448 279.818 38.728 279.818 40.392V44.4C279.818 44.736 279.874 44.976 279.986 45.12C280.114 45.264 280.314 45.352 280.586 45.384V48C280.298 48.048 280.034 48.088 279.794 48.12C279.57 48.152 279.378 48.168 279.218 48.168C278.578 48.168 278.09 48.024 277.754 47.736C277.434 47.448 277.234 47.096 277.154 46.68L277.082 46.032C276.538 46.736 275.858 47.28 275.042 47.664C274.226 48.048 273.394 48.24 272.546 48.24C271.714 48.24 270.962 48.072 270.29 47.736C269.634 47.384 269.114 46.912 268.73 46.32C268.362 45.712 268.178 45.032 268.178 44.28ZM276.002 44.928C276.178 44.736 276.322 44.544 276.434 44.352C276.546 44.16 276.602 43.984 276.602 43.824V42.552C276.218 42.392 275.802 42.272 275.354 42.192C274.906 42.096 274.482 42.048 274.082 42.048C273.25 42.048 272.562 42.232 272.018 42.6C271.49 42.952 271.226 43.424 271.226 44.016C271.226 44.336 271.314 44.64 271.49 44.928C271.666 45.216 271.922 45.448 272.258 45.624C272.594 45.8 272.994 45.888 273.458 45.888C273.938 45.888 274.41 45.8 274.874 45.624C275.338 45.432 275.714 45.2 276.002 44.928Z" fill="#001F23"/>
<path d="M142.672 85.24C142.672 84.5467 142.789 83.8693 143.024 83.208C143.269 82.536 143.621 81.928 144.08 81.384C144.539 80.8293 145.104 80.392 145.776 80.072C146.448 79.7413 147.211 79.576 148.064 79.576C149.077 79.576 149.941 79.8107 150.656 80.28C151.381 80.7387 151.915 81.3307 152.256 82.056L151.376 82.6C151.131 82.0987 150.821 81.704 150.448 81.416C150.075 81.1173 149.675 80.904 149.248 80.776C148.832 80.648 148.416 80.584 148 80.584C147.317 80.584 146.715 80.7227 146.192 81C145.669 81.2667 145.227 81.6293 144.864 82.088C144.512 82.536 144.245 83.0427 144.064 83.608C143.883 84.1627 143.792 84.728 143.792 85.304C143.792 85.9333 143.899 86.536 144.112 87.112C144.325 87.688 144.624 88.2 145.008 88.648C145.392 89.0853 145.84 89.4373 146.352 89.704C146.875 89.96 147.44 90.088 148.048 90.088C148.475 90.088 148.912 90.0133 149.36 89.864C149.808 89.7147 150.224 89.4853 150.608 89.176C151.003 88.8667 151.317 88.4667 151.552 87.976L152.48 88.456C152.245 89.0213 151.883 89.5013 151.392 89.896C150.901 90.2907 150.352 90.5893 149.744 90.792C149.147 90.9947 148.56 91.096 147.984 91.096C147.205 91.096 146.491 90.9307 145.84 90.6C145.189 90.2587 144.624 89.8107 144.144 89.256C143.675 88.6907 143.312 88.0613 143.056 87.368C142.8 86.664 142.672 85.9547 142.672 85.24ZM153.497 88.6C153.497 88.0773 153.646 87.6293 153.945 87.256C154.243 86.872 154.654 86.5787 155.177 86.376C155.71 86.1627 156.323 86.056 157.017 86.056C157.422 86.056 157.843 86.088 158.281 86.152C158.718 86.216 159.107 86.312 159.449 86.44V85.736C159.449 85.032 159.241 84.472 158.825 84.056C158.409 83.64 157.833 83.432 157.097 83.432C156.649 83.432 156.206 83.5173 155.769 83.688C155.342 83.848 154.894 84.088 154.425 84.408L154.009 83.64C154.553 83.2667 155.086 82.9893 155.609 82.808C156.131 82.616 156.665 82.52 157.209 82.52C158.233 82.52 159.043 82.8133 159.641 83.4C160.238 83.9867 160.537 84.7973 160.537 85.832V89.688C160.537 89.8373 160.569 89.9493 160.633 90.024C160.697 90.088 160.798 90.1253 160.937 90.136V91C160.819 91.0107 160.718 91.0213 160.633 91.032C160.547 91.0427 160.483 91.0427 160.441 91.032C160.174 91.0213 159.971 90.936 159.833 90.776C159.694 90.616 159.619 90.4453 159.609 90.264L159.593 89.656C159.219 90.136 158.734 90.5093 158.137 90.776C157.539 91.032 156.931 91.16 156.313 91.16C155.779 91.16 155.294 91.048 154.857 90.824C154.43 90.5893 154.094 90.28 153.849 89.896C153.614 89.5013 153.497 89.0693 153.497 88.6ZM159.081 89.24C159.198 89.0907 159.289 88.9467 159.353 88.808C159.417 88.6693 159.449 88.5467 159.449 88.44V87.224C159.086 87.0853 158.707 86.9787 158.313 86.904C157.929 86.8293 157.539 86.792 157.145 86.792C156.366 86.792 155.737 86.9467 155.257 87.256C154.777 87.5653 154.537 87.9867 154.537 88.52C154.537 88.8293 154.617 89.1227 154.777 89.4C154.937 89.6667 155.171 89.8907 155.481 90.072C155.79 90.2427 156.153 90.328 156.569 90.328C157.091 90.328 157.577 90.2267 158.025 90.024C158.483 89.8213 158.835 89.56 159.081 89.24ZM167.048 83.624C166.322 83.6453 165.682 83.848 165.128 84.232C164.584 84.616 164.2 85.144 163.976 85.816V91H162.888V82.664H163.912V84.664C164.2 84.0773 164.578 83.6027 165.048 83.24C165.528 82.8773 166.034 82.6747 166.568 82.632C166.674 82.6213 166.765 82.616 166.84 82.616C166.925 82.616 166.994 82.6213 167.048 82.632V83.624ZM168.497 91V82.664H169.585V91H168.497ZM168.497 80.92V79.32H169.585V80.92H168.497ZM178.989 91H177.901V86.344C177.901 85.3627 177.757 84.648 177.469 84.2C177.181 83.7413 176.728 83.512 176.109 83.512C175.683 83.512 175.261 83.6187 174.845 83.832C174.429 84.0347 174.061 84.3173 173.741 84.68C173.432 85.032 173.208 85.4373 173.069 85.896V91H171.981V82.664H172.973V84.552C173.197 84.1467 173.491 83.7947 173.853 83.496C174.216 83.1867 174.627 82.9467 175.085 82.776C175.544 82.6053 176.019 82.52 176.509 82.52C176.968 82.52 177.357 82.6053 177.677 82.776C177.997 82.9467 178.253 83.192 178.445 83.512C178.637 83.8213 178.776 84.2 178.861 84.648C178.947 85.0853 178.989 85.576 178.989 86.12V91ZM184.653 91.112C184.088 91.112 183.565 90.9947 183.085 90.76C182.605 90.5253 182.189 90.2107 181.837 89.816C181.496 89.4107 181.229 88.952 181.037 88.44C180.845 87.928 180.749 87.4 180.749 86.856C180.749 86.2693 180.84 85.72 181.021 85.208C181.213 84.6853 181.48 84.2213 181.821 83.816C182.173 83.4107 182.584 83.096 183.053 82.872C183.523 82.6373 184.045 82.52 184.621 82.52C185.336 82.52 185.955 82.7013 186.477 83.064C187.011 83.4267 187.459 83.8747 187.821 84.408V82.664H188.797V91.032C188.797 91.8 188.611 92.4453 188.237 92.968C187.875 93.5013 187.379 93.9013 186.749 94.168C186.131 94.4347 185.453 94.568 184.717 94.568C183.768 94.568 183 94.3973 182.413 94.056C181.827 93.7147 181.347 93.256 180.973 92.68L181.645 92.152C181.976 92.6747 182.413 93.064 182.957 93.32C183.512 93.576 184.099 93.704 184.717 93.704C185.261 93.704 185.757 93.6027 186.205 93.4C186.664 93.208 187.027 92.9147 187.293 92.52C187.571 92.1253 187.709 91.6293 187.709 91.032V89.384C187.389 89.9067 186.952 90.328 186.397 90.648C185.843 90.9573 185.261 91.112 184.653 91.112ZM184.957 90.2C185.288 90.2 185.603 90.1413 185.901 90.024C186.211 89.9067 186.493 89.752 186.749 89.56C187.005 89.3573 187.219 89.1333 187.389 88.888C187.56 88.6427 187.667 88.392 187.709 88.136V85.56C187.549 85.1547 187.32 84.7973 187.021 84.488C186.723 84.168 186.381 83.9227 185.997 83.752C185.624 83.5707 185.235 83.48 184.829 83.48C184.36 83.48 183.939 83.5813 183.565 83.784C183.203 83.976 182.893 84.2373 182.637 84.568C182.392 84.888 182.2 85.2507 182.061 85.656C181.923 86.0613 181.853 86.4667 181.853 86.872C181.853 87.32 181.933 87.7467 182.093 88.152C182.253 88.5467 182.472 88.904 182.749 89.224C183.037 89.5333 183.368 89.7733 183.741 89.944C184.125 90.1147 184.531 90.2 184.957 90.2ZM203.214 91L197.55 85.032C197.091 84.5413 196.723 84.1253 196.446 83.784C196.169 83.432 195.971 83.1173 195.854 82.84C195.737 82.552 195.678 82.2693 195.678 81.992C195.678 81.5227 195.801 81.1013 196.046 80.728C196.302 80.3547 196.643 80.056 197.07 79.832C197.507 79.608 197.993 79.496 198.526 79.496C199.027 79.496 199.475 79.592 199.87 79.784C200.275 79.9653 200.595 80.2267 200.83 80.568C201.065 80.8987 201.182 81.288 201.182 81.736C201.182 82.216 201.043 82.648 200.766 83.032C200.499 83.4053 200.147 83.7573 199.71 84.088C199.283 84.408 198.809 84.7333 198.286 85.064C197.849 85.3627 197.443 85.6667 197.07 85.976C196.707 86.2747 196.419 86.5947 196.206 86.936C195.993 87.2773 195.886 87.6667 195.886 88.104C195.886 88.5733 196.019 88.9733 196.286 89.304C196.553 89.624 196.889 89.8693 197.294 90.04C197.71 90.2 198.137 90.28 198.574 90.28C199.15 90.28 199.678 90.152 200.158 89.896C200.649 89.6293 201.075 89.2667 201.438 88.808C201.801 88.3387 202.078 87.8053 202.27 87.208C202.473 86.6107 202.574 85.976 202.574 85.304H203.502C203.502 86.1147 203.374 86.8773 203.118 87.592C202.862 88.296 202.505 88.9147 202.046 89.448C201.598 89.9813 201.065 90.4027 200.446 90.712C199.838 91.0107 199.177 91.16 198.462 91.16C197.801 91.16 197.193 91.032 196.638 90.776C196.083 90.5093 195.641 90.1467 195.31 89.688C194.99 89.2293 194.83 88.6907 194.83 88.072C194.83 87.496 194.963 86.9947 195.23 86.568C195.507 86.1307 195.859 85.7413 196.286 85.4C196.723 85.048 197.182 84.7173 197.662 84.408C198.153 84.088 198.585 83.7947 198.958 83.528C199.342 83.2507 199.641 82.9733 199.854 82.696C200.067 82.408 200.174 82.0987 200.174 81.768C200.174 81.352 200.019 81.0107 199.71 80.744C199.401 80.4773 199.006 80.344 198.526 80.344C198.174 80.344 197.859 80.4187 197.582 80.568C197.305 80.7173 197.086 80.9147 196.926 81.16C196.766 81.4053 196.686 81.672 196.686 81.96C196.686 82.1413 196.729 82.3333 196.814 82.536C196.899 82.728 197.065 82.9733 197.31 83.272C197.555 83.56 197.907 83.944 198.366 84.424L204.654 91H203.214ZM213.644 91.16C213.036 91.16 212.476 91.048 211.964 90.824C211.463 90.5893 211.02 90.2693 210.636 89.864C210.263 89.4587 209.969 88.9947 209.756 88.472C209.553 87.9493 209.452 87.3947 209.452 86.808C209.452 86.0187 209.628 85.2987 209.98 84.648C210.332 83.9973 210.823 83.48 211.452 83.096C212.081 82.712 212.807 82.52 213.628 82.52C214.407 82.52 215.095 82.7013 215.692 83.064C216.289 83.416 216.732 83.896 217.02 84.504L215.964 84.84C215.729 84.4133 215.399 84.0827 214.972 83.848C214.556 83.6027 214.092 83.48 213.58 83.48C213.025 83.48 212.519 83.624 212.06 83.912C211.601 84.2 211.233 84.5947 210.956 85.096C210.689 85.5973 210.556 86.168 210.556 86.808C210.556 87.4373 210.695 88.008 210.972 88.52C211.249 89.032 211.617 89.4427 212.076 89.752C212.535 90.0507 213.041 90.2 213.596 90.2C213.959 90.2 214.305 90.136 214.636 90.008C214.977 89.88 215.271 89.7093 215.516 89.496C215.772 89.272 215.943 89.032 216.028 88.776L217.1 89.096C216.951 89.4907 216.7 89.848 216.348 90.168C216.007 90.4773 215.601 90.7227 215.132 90.904C214.673 91.0747 214.177 91.16 213.644 91.16ZM222.283 91.16C221.686 91.16 221.131 91.048 220.619 90.824C220.118 90.5893 219.681 90.2747 219.307 89.88C218.945 89.4747 218.662 89.016 218.459 88.504C218.257 87.9813 218.155 87.432 218.155 86.856C218.155 86.2587 218.257 85.704 218.459 85.192C218.662 84.6693 218.95 84.2107 219.323 83.816C219.697 83.4107 220.134 83.096 220.635 82.872C221.147 82.6373 221.702 82.52 222.299 82.52C222.897 82.52 223.446 82.6373 223.947 82.872C224.449 83.096 224.886 83.4107 225.259 83.816C225.633 84.2107 225.921 84.6693 226.123 85.192C226.326 85.704 226.427 86.2587 226.427 86.856C226.427 87.432 226.326 87.9813 226.123 88.504C225.921 89.016 225.633 89.4747 225.259 89.88C224.897 90.2747 224.459 90.5893 223.947 90.824C223.446 91.048 222.891 91.16 222.283 91.16ZM219.259 86.872C219.259 87.4907 219.393 88.056 219.659 88.568C219.937 89.0693 220.305 89.4693 220.763 89.768C221.222 90.056 221.729 90.2 222.283 90.2C222.838 90.2 223.345 90.0507 223.803 89.752C224.262 89.4533 224.63 89.048 224.907 88.536C225.185 88.0133 225.323 87.448 225.323 86.84C225.323 86.2213 225.185 85.656 224.907 85.144C224.63 84.632 224.262 84.2267 223.803 83.928C223.345 83.6293 222.838 83.48 222.283 83.48C221.729 83.48 221.222 83.6347 220.763 83.944C220.315 84.2533 219.953 84.664 219.675 85.176C219.398 85.6773 219.259 86.2427 219.259 86.872ZM240.647 91H239.559V86.344C239.559 85.3733 239.404 84.6587 239.095 84.2C238.786 83.7413 238.327 83.512 237.719 83.512C237.09 83.512 236.524 83.736 236.023 84.184C235.532 84.632 235.186 85.208 234.983 85.912V91H233.895V86.344C233.895 85.3627 233.746 84.648 233.447 84.2C233.148 83.7413 232.69 83.512 232.071 83.512C231.452 83.512 230.892 83.7307 230.391 84.168C229.89 84.6053 229.538 85.1813 229.335 85.896V91H228.247V82.664H229.239V84.552C229.591 83.9013 230.039 83.4 230.583 83.048C231.138 82.696 231.751 82.52 232.423 82.52C233.116 82.52 233.676 82.7173 234.103 83.112C234.53 83.5067 234.791 84.024 234.887 84.664C235.271 83.96 235.73 83.4267 236.263 83.064C236.807 82.7013 237.42 82.52 238.103 82.52C238.572 82.52 238.967 82.6053 239.287 82.776C239.618 82.9467 239.879 83.192 240.071 83.512C240.274 83.8213 240.418 84.2 240.503 84.648C240.599 85.0853 240.647 85.576 240.647 86.12V91ZM247.206 91.16C246.513 91.16 245.889 90.9787 245.334 90.616C244.79 90.2533 244.358 89.8053 244.038 89.272V94.408H242.95V82.664H243.926V84.28C244.257 83.7573 244.699 83.336 245.254 83.016C245.809 82.6853 246.401 82.52 247.03 82.52C247.606 82.52 248.134 82.6427 248.614 82.888C249.094 83.1227 249.51 83.4427 249.862 83.848C250.214 84.2533 250.486 84.7173 250.678 85.24C250.881 85.752 250.982 86.2853 250.982 86.84C250.982 87.6187 250.822 88.3387 250.502 89C250.193 89.6507 249.755 90.1733 249.19 90.568C248.625 90.9627 247.963 91.16 247.206 91.16ZM246.902 90.2C247.361 90.2 247.771 90.1093 248.134 89.928C248.497 89.736 248.806 89.48 249.062 89.16C249.329 88.84 249.531 88.4827 249.67 88.088C249.809 87.6827 249.878 87.2667 249.878 86.84C249.878 86.392 249.798 85.9653 249.638 85.56C249.489 85.1547 249.27 84.7973 248.982 84.488C248.694 84.1787 248.363 83.9333 247.99 83.752C247.617 83.5707 247.211 83.48 246.774 83.48C246.497 83.48 246.209 83.5333 245.91 83.64C245.611 83.7467 245.323 83.9013 245.046 84.104C244.779 84.296 244.555 84.5147 244.374 84.76C244.193 85.0053 244.081 85.2667 244.038 85.544V88.104C244.209 88.4987 244.438 88.856 244.726 89.176C245.014 89.4853 245.345 89.736 245.718 89.928C246.102 90.1093 246.497 90.2 246.902 90.2ZM252.153 88.6C252.153 88.0773 252.302 87.6293 252.601 87.256C252.9 86.872 253.31 86.5787 253.833 86.376C254.366 86.1627 254.98 86.056 255.673 86.056C256.078 86.056 256.5 86.088 256.937 86.152C257.374 86.216 257.764 86.312 258.105 86.44V85.736C258.105 85.032 257.897 84.472 257.481 84.056C257.065 83.64 256.489 83.432 255.753 83.432C255.305 83.432 254.862 83.5173 254.425 83.688C253.998 83.848 253.55 84.088 253.081 84.408L252.665 83.64C253.209 83.2667 253.742 82.9893 254.265 82.808C254.788 82.616 255.321 82.52 255.865 82.52C256.889 82.52 257.7 82.8133 258.297 83.4C258.894 83.9867 259.193 84.7973 259.193 85.832V89.688C259.193 89.8373 259.225 89.9493 259.289 90.024C259.353 90.088 259.454 90.1253 259.593 90.136V91C259.476 91.0107 259.374 91.0213 259.289 91.032C259.204 91.0427 259.14 91.0427 259.097 91.032C258.83 91.0213 258.628 90.936 258.489 90.776C258.35 90.616 258.276 90.4453 258.265 90.264L258.249 89.656C257.876 90.136 257.39 90.5093 256.793 90.776C256.196 91.032 255.588 91.16 254.969 91.16C254.436 91.16 253.95 91.048 253.513 90.824C253.086 90.5893 252.75 90.28 252.505 89.896C252.27 89.5013 252.153 89.0693 252.153 88.6ZM257.737 89.24C257.854 89.0907 257.945 88.9467 258.009 88.808C258.073 88.6693 258.105 88.5467 258.105 88.44V87.224C257.742 87.0853 257.364 86.9787 256.969 86.904C256.585 86.8293 256.196 86.792 255.801 86.792C255.022 86.792 254.393 86.9467 253.913 87.256C253.433 87.5653 253.193 87.9867 253.193 88.52C253.193 88.8293 253.273 89.1227 253.433 89.4C253.593 89.6667 253.828 89.8907 254.137 90.072C254.446 90.2427 254.809 90.328 255.225 90.328C255.748 90.328 256.233 90.2267 256.681 90.024C257.14 89.8213 257.492 89.56 257.737 89.24ZM264.28 91.16C263.597 91.16 262.962 91.048 262.376 90.824C261.789 90.6 261.282 90.2587 260.856 89.8L261.304 89.032C261.773 89.4693 262.242 89.7893 262.712 89.992C263.192 90.184 263.698 90.28 264.232 90.28C264.882 90.28 265.41 90.152 265.816 89.896C266.221 89.6293 266.424 89.2507 266.424 88.76C266.424 88.4293 266.322 88.1787 266.12 88.008C265.928 87.8267 265.645 87.6827 265.272 87.576C264.909 87.4587 264.472 87.336 263.96 87.208C263.384 87.048 262.898 86.8827 262.504 86.712C262.12 86.5307 261.826 86.3067 261.624 86.04C261.432 85.7627 261.336 85.4053 261.336 84.968C261.336 84.424 261.469 83.976 261.736 83.624C262.013 83.2613 262.386 82.9893 262.856 82.808C263.336 82.616 263.869 82.52 264.456 82.52C265.096 82.52 265.661 82.6213 266.152 82.824C266.642 83.0267 267.042 83.3093 267.352 83.672L266.824 84.408C266.525 84.0667 266.168 83.816 265.752 83.656C265.346 83.4853 264.893 83.4 264.392 83.4C264.05 83.4 263.725 83.448 263.416 83.544C263.106 83.6293 262.85 83.7787 262.648 83.992C262.456 84.1947 262.36 84.4773 262.36 84.84C262.36 85.1387 262.434 85.3733 262.584 85.544C262.733 85.704 262.957 85.8427 263.256 85.96C263.554 86.0667 263.922 86.184 264.36 86.312C264.989 86.4827 265.538 86.6587 266.008 86.84C266.477 87.0107 266.84 87.2347 267.096 87.512C267.352 87.7893 267.48 88.1787 267.48 88.68C267.48 89.4587 267.186 90.0667 266.6 90.504C266.013 90.9413 265.24 91.16 264.28 91.16ZM272.014 91.16C271.331 91.16 270.697 91.048 270.11 90.824C269.523 90.6 269.017 90.2587 268.59 89.8L269.038 89.032C269.507 89.4693 269.977 89.7893 270.446 89.992C270.926 90.184 271.433 90.28 271.966 90.28C272.617 90.28 273.145 90.152 273.55 89.896C273.955 89.6293 274.158 89.2507 274.158 88.76C274.158 88.4293 274.057 88.1787 273.854 88.008C273.662 87.8267 273.379 87.6827 273.006 87.576C272.643 87.4587 272.206 87.336 271.694 87.208C271.118 87.048 270.633 86.8827 270.238 86.712C269.854 86.5307 269.561 86.3067 269.358 86.04C269.166 85.7627 269.07 85.4053 269.07 84.968C269.07 84.424 269.203 83.976 269.47 83.624C269.747 83.2613 270.121 82.9893 270.59 82.808C271.07 82.616 271.603 82.52 272.19 82.52C272.83 82.52 273.395 82.6213 273.886 82.824C274.377 83.0267 274.777 83.3093 275.086 83.672L274.558 84.408C274.259 84.0667 273.902 83.816 273.486 83.656C273.081 83.4853 272.627 83.4 272.126 83.4C271.785 83.4 271.459 83.448 271.15 83.544C270.841 83.6293 270.585 83.7787 270.382 83.992C270.19 84.1947 270.094 84.4773 270.094 84.84C270.094 85.1387 270.169 85.3733 270.318 85.544C270.467 85.704 270.691 85.8427 270.99 85.96C271.289 86.0667 271.657 86.184 272.094 86.312C272.723 86.4827 273.273 86.6587 273.742 86.84C274.211 87.0107 274.574 87.2347 274.83 87.512C275.086 87.7893 275.214 88.1787 275.214 88.68C275.214 89.4587 274.921 90.0667 274.334 90.504C273.747 90.9413 272.974 91.16 272.014 91.16ZM277.013 91V82.664H278.101V91H277.013ZM277.013 80.92V79.32H278.101V80.92H277.013ZM284.049 91.16C283.452 91.16 282.897 91.048 282.385 90.824C281.884 90.5893 281.446 90.2747 281.073 89.88C280.71 89.4747 280.428 89.016 280.225 88.504C280.022 87.9813 279.921 87.432 279.921 86.856C279.921 86.2587 280.022 85.704 280.225 85.192C280.428 84.6693 280.716 84.2107 281.089 83.816C281.462 83.4107 281.9 83.096 282.401 82.872C282.913 82.6373 283.468 82.52 284.065 82.52C284.662 82.52 285.212 82.6373 285.713 82.872C286.214 83.096 286.652 83.4107 287.025 83.816C287.398 84.2107 287.686 84.6693 287.889 85.192C288.092 85.704 288.193 86.2587 288.193 86.856C288.193 87.432 288.092 87.9813 287.889 88.504C287.686 89.016 287.398 89.4747 287.025 89.88C286.662 90.2747 286.225 90.5893 285.713 90.824C285.212 91.048 284.657 91.16 284.049 91.16ZM281.025 86.872C281.025 87.4907 281.158 88.056 281.425 88.568C281.702 89.0693 282.07 89.4693 282.529 89.768C282.988 90.056 283.494 90.2 284.049 90.2C284.604 90.2 285.11 90.0507 285.569 89.752C286.028 89.4533 286.396 89.048 286.673 88.536C286.95 88.0133 287.089 87.448 287.089 86.84C287.089 86.2213 286.95 85.656 286.673 85.144C286.396 84.632 286.028 84.2267 285.569 83.928C285.11 83.6293 284.604 83.48 284.049 83.48C283.494 83.48 282.988 83.6347 282.529 83.944C282.081 84.2533 281.718 84.664 281.441 85.176C281.164 85.6773 281.025 86.2427 281.025 86.872ZM297.021 91H295.933V86.344C295.933 85.3627 295.789 84.648 295.501 84.2C295.213 83.7413 294.759 83.512 294.141 83.512C293.714 83.512 293.293 83.6187 292.877 83.832C292.461 84.0347 292.093 84.3173 291.773 84.68C291.463 85.032 291.239 85.4373 291.101 85.896V91H290.013V82.664H291.005V84.552C291.229 84.1467 291.522 83.7947 291.885 83.496C292.247 83.1867 292.658 82.9467 293.117 82.776C293.575 82.6053 294.05 82.52 294.541 82.52C294.999 82.52 295.389 82.6053 295.709 82.776C296.029 82.9467 296.285 83.192 296.477 83.512C296.669 83.8213 296.807 84.2 296.892 84.648C296.978 85.0853 297.021 85.576 297.021 86.12V91ZM298.669 88.6C298.669 88.0773 298.818 87.6293 299.117 87.256C299.415 86.872 299.826 86.5787 300.349 86.376C300.882 86.1627 301.495 86.056 302.189 86.056C302.594 86.056 303.015 86.088 303.453 86.152C303.89 86.216 304.279 86.312 304.621 86.44V85.736C304.621 85.032 304.413 84.472 303.997 84.056C303.581 83.64 303.005 83.432 302.269 83.432C301.821 83.432 301.378 83.5173 300.941 83.688C300.514 83.848 300.066 84.088 299.597 84.408L299.181 83.64C299.725 83.2667 300.258 82.9893 300.781 82.808C301.303 82.616 301.837 82.52 302.381 82.52C303.405 82.52 304.215 82.8133 304.813 83.4C305.41 83.9867 305.709 84.7973 305.709 85.832V89.688C305.709 89.8373 305.741 89.9493 305.805 90.024C305.869 90.088 305.97 90.1253 306.109 90.136V91C305.991 91.0107 305.89 91.0213 305.805 91.032C305.719 91.0427 305.655 91.0427 305.613 91.032C305.346 91.0213 305.143 90.936 305.005 90.776C304.866 90.616 304.791 90.4453 304.781 90.264L304.765 89.656C304.391 90.136 303.906 90.5093 303.309 90.776C302.711 91.032 302.103 91.16 301.485 91.16C300.951 91.16 300.466 91.048 300.029 90.824C299.602 90.5893 299.266 90.28 299.021 89.896C298.786 89.5013 298.669 89.0693 298.669 88.6ZM304.253 89.24C304.37 89.0907 304.461 88.9467 304.525 88.808C304.589 88.6693 304.621 88.5467 304.621 88.44V87.224C304.258 87.0853 303.879 86.9787 303.485 86.904C303.101 86.8293 302.711 86.792 302.317 86.792C301.538 86.792 300.909 86.9467 300.429 87.256C299.949 87.5653 299.709 87.9867 299.709 88.52C299.709 88.8293 299.789 89.1227 299.949 89.4C300.109 89.6667 300.343 89.8907 300.653 90.072C300.962 90.2427 301.325 90.328 301.741 90.328C302.263 90.328 302.749 90.2267 303.197 90.024C303.655 89.8213 304.007 89.56 304.253 89.24ZM311.997 90.6C311.912 90.632 311.778 90.6907 311.597 90.776C311.416 90.8613 311.197 90.936 310.941 91C310.685 91.064 310.408 91.096 310.109 91.096C309.8 91.096 309.506 91.0373 309.229 90.92C308.962 90.8027 308.749 90.6267 308.589 90.392C308.429 90.1467 308.349 89.848 308.349 89.496V83.528H307.197V82.664H308.349V79.848H309.437V82.664H311.357V83.528H309.437V89.192C309.458 89.4907 309.565 89.7147 309.757 89.864C309.96 90.0133 310.189 90.088 310.445 90.088C310.744 90.088 311.016 90.04 311.261 89.944C311.506 89.8373 311.656 89.7627 311.709 89.72L311.997 90.6ZM316.816 91.16C316.218 91.16 315.664 91.048 315.152 90.824C314.64 90.5893 314.197 90.2747 313.824 89.88C313.45 89.4747 313.157 89.0107 312.944 88.488C312.741 87.9653 312.64 87.4053 312.64 86.808C312.64 86.0293 312.816 85.3147 313.168 84.664C313.53 84.0133 314.026 83.496 314.656 83.112C315.285 82.7173 316 82.52 316.8 82.52C317.621 82.52 318.336 82.7173 318.944 83.112C319.562 83.5067 320.048 84.0293 320.4 84.68C320.752 85.32 320.928 86.024 320.928 86.792C320.928 86.8773 320.928 86.9627 320.928 87.048C320.928 87.1227 320.922 87.1813 320.912 87.224H313.776C313.829 87.8213 313.994 88.3547 314.272 88.824C314.56 89.2827 314.928 89.6507 315.376 89.928C315.834 90.1947 316.33 90.328 316.864 90.328C317.408 90.328 317.92 90.1893 318.4 89.912C318.89 89.6347 319.232 89.272 319.424 88.824L320.368 89.08C320.197 89.4747 319.936 89.832 319.584 90.152C319.232 90.472 318.816 90.7227 318.336 90.904C317.866 91.0747 317.36 91.16 316.816 91.16ZM313.744 86.44H319.904C319.861 85.832 319.696 85.2987 319.408 84.84C319.13 84.3813 318.762 84.024 318.304 83.768C317.856 83.5013 317.36 83.368 316.816 83.368C316.272 83.368 315.776 83.5013 315.328 83.768C314.88 84.024 314.512 84.3867 314.224 84.856C313.946 85.3147 313.786 85.8427 313.744 86.44ZM150.208 119H149.12V114.344C149.12 113.363 148.976 112.648 148.688 112.2C148.4 111.741 147.947 111.512 147.328 111.512C146.901 111.512 146.48 111.619 146.064 111.832C145.648 112.035 145.28 112.317 144.96 112.68C144.651 113.032 144.427 113.437 144.288 113.896V119H143.2V110.664H144.192V112.552C144.416 112.147 144.709 111.795 145.072 111.496C145.435 111.187 145.845 110.947 146.304 110.776C146.763 110.605 147.237 110.52 147.728 110.52C148.187 110.52 148.576 110.605 148.896 110.776C149.216 110.947 149.472 111.192 149.664 111.512C149.856 111.821 149.995 112.2 150.08 112.648C150.165 113.085 150.208 113.576 150.208 114.12V119ZM152.448 115.56V110.664H153.536V115.368C153.536 116.317 153.696 117.027 154.016 117.496C154.347 117.965 154.832 118.2 155.472 118.2C155.899 118.2 156.309 118.109 156.704 117.928C157.109 117.736 157.467 117.469 157.776 117.128C158.085 116.776 158.32 116.371 158.48 115.912V110.664H159.568V117.688C159.568 117.837 159.6 117.949 159.664 118.024C159.728 118.088 159.824 118.125 159.952 118.136V119C159.824 119.011 159.723 119.016 159.648 119.016C159.573 119.027 159.504 119.032 159.44 119.032C159.227 119.011 159.04 118.925 158.88 118.776C158.731 118.627 158.651 118.445 158.64 118.232L158.608 117.112C158.245 117.752 157.749 118.253 157.12 118.616C156.501 118.979 155.829 119.16 155.104 119.16C154.229 119.16 153.568 118.856 153.12 118.248C152.672 117.64 152.448 116.744 152.448 115.56ZM166.188 111.624C165.463 111.645 164.823 111.848 164.268 112.232C163.724 112.616 163.34 113.144 163.116 113.816V119H162.028V110.664H163.052V112.664C163.34 112.077 163.719 111.603 164.188 111.24C164.668 110.877 165.175 110.675 165.708 110.632C165.815 110.621 165.905 110.616 165.98 110.616C166.065 110.616 166.135 110.621 166.188 110.632V111.624ZM170.374 119.16C169.691 119.16 169.056 119.048 168.47 118.824C167.883 118.6 167.376 118.259 166.95 117.8L167.398 117.032C167.867 117.469 168.336 117.789 168.806 117.992C169.286 118.184 169.792 118.28 170.326 118.28C170.976 118.28 171.504 118.152 171.91 117.896C172.315 117.629 172.518 117.251 172.518 116.76C172.518 116.429 172.416 116.179 172.214 116.008C172.022 115.827 171.739 115.683 171.366 115.576C171.003 115.459 170.566 115.336 170.054 115.208C169.478 115.048 168.992 114.883 168.598 114.712C168.214 114.531 167.92 114.307 167.718 114.04C167.526 113.763 167.43 113.405 167.43 112.968C167.43 112.424 167.563 111.976 167.83 111.624C168.107 111.261 168.48 110.989 168.95 110.808C169.43 110.616 169.963 110.52 170.549 110.52C171.19 110.52 171.755 110.621 172.246 110.824C172.736 111.027 173.136 111.309 173.446 111.672L172.918 112.408C172.619 112.067 172.262 111.816 171.846 111.656C171.44 111.485 170.987 111.4 170.486 111.4C170.144 111.4 169.819 111.448 169.51 111.544C169.2 111.629 168.944 111.779 168.742 111.992C168.55 112.195 168.454 112.477 168.454 112.84C168.454 113.139 168.528 113.373 168.678 113.544C168.827 113.704 169.051 113.843 169.35 113.96C169.648 114.067 170.016 114.184 170.454 114.312C171.083 114.483 171.632 114.659 172.102 114.84C172.571 115.011 172.934 115.235 173.19 115.512C173.446 115.789 173.574 116.179 173.574 116.68C173.574 117.459 173.28 118.067 172.694 118.504C172.107 118.941 171.334 119.16 170.374 119.16ZM178.972 119.16C178.375 119.16 177.82 119.048 177.308 118.824C176.796 118.589 176.353 118.275 175.98 117.88C175.607 117.475 175.313 117.011 175.1 116.488C174.897 115.965 174.796 115.405 174.796 114.808C174.796 114.029 174.972 113.315 175.324 112.664C175.687 112.013 176.183 111.496 176.812 111.112C177.441 110.717 178.156 110.52 178.956 110.52C179.777 110.52 180.492 110.717 181.1 111.112C181.719 111.507 182.204 112.029 182.556 112.68C182.908 113.32 183.084 114.024 183.084 114.792C183.084 114.877 183.084 114.963 183.084 115.048C183.084 115.123 183.079 115.181 183.068 115.224H175.932C175.985 115.821 176.151 116.355 176.428 116.824C176.716 117.283 177.084 117.651 177.532 117.928C177.991 118.195 178.487 118.328 179.02 118.328C179.564 118.328 180.076 118.189 180.556 117.912C181.047 117.635 181.388 117.272 181.58 116.824L182.524 117.08C182.353 117.475 182.092 117.832 181.74 118.152C181.388 118.472 180.972 118.723 180.492 118.904C180.023 119.075 179.516 119.16 178.972 119.16ZM175.9 114.44H182.06C182.017 113.832 181.852 113.299 181.564 112.84C181.287 112.381 180.919 112.024 180.46 111.768C180.012 111.501 179.516 111.368 178.972 111.368C178.428 111.368 177.932 111.501 177.484 111.768C177.036 112.024 176.668 112.387 176.38 112.856C176.103 113.315 175.943 113.843 175.9 114.44ZM187.499 119.16C186.816 119.16 186.181 119.048 185.595 118.824C185.008 118.6 184.501 118.259 184.075 117.8L184.523 117.032C184.992 117.469 185.461 117.789 185.931 117.992C186.411 118.184 186.917 118.28 187.451 118.28C188.101 118.28 188.629 118.152 189.035 117.896C189.44 117.629 189.643 117.251 189.643 116.76C189.643 116.429 189.541 116.179 189.339 116.008C189.147 115.827 188.864 115.683 188.491 115.576C188.128 115.459 187.691 115.336 187.179 115.208C186.603 115.048 186.117 114.883 185.723 114.712C185.339 114.531 185.045 114.307 184.843 114.04C184.651 113.763 184.555 113.405 184.555 112.968C184.555 112.424 184.688 111.976 184.955 111.624C185.232 111.261 185.605 110.989 186.075 110.808C186.555 110.616 187.088 110.52 187.674 110.52C188.315 110.52 188.88 110.621 189.371 110.824C189.861 111.027 190.261 111.309 190.571 111.672L190.043 112.408C189.744 112.067 189.387 111.816 188.971 111.656C188.565 111.485 188.112 111.4 187.611 111.4C187.269 111.4 186.944 111.448 186.635 111.544C186.325 111.629 186.069 111.779 185.867 111.992C185.675 112.195 185.579 112.477 185.579 112.84C185.579 113.139 185.653 113.373 185.803 113.544C185.952 113.704 186.176 113.843 186.475 113.96C186.773 114.067 187.141 114.184 187.579 114.312C188.208 114.483 188.757 114.659 189.227 114.84C189.696 115.011 190.059 115.235 190.315 115.512C190.571 115.789 190.699 116.179 190.699 116.68C190.699 117.459 190.405 118.067 189.819 118.504C189.232 118.941 188.459 119.16 187.499 119.16ZM195.903 116.6C195.903 116.077 196.052 115.629 196.351 115.256C196.65 114.872 197.06 114.579 197.583 114.376C198.116 114.163 198.73 114.056 199.423 114.056C199.828 114.056 200.25 114.088 200.687 114.152C201.124 114.216 201.514 114.312 201.855 114.44V113.736C201.855 113.032 201.647 112.472 201.231 112.056C200.815 111.64 200.239 111.432 199.503 111.432C199.055 111.432 198.612 111.517 198.175 111.688C197.748 111.848 197.3 112.088 196.831 112.408L196.415 111.64C196.959 111.267 197.492 110.989 198.015 110.808C198.538 110.616 199.071 110.52 199.615 110.52C200.639 110.52 201.45 110.813 202.047 111.4C202.644 111.987 202.943 112.797 202.943 113.832V117.688C202.943 117.837 202.975 117.949 203.039 118.024C203.103 118.088 203.204 118.125 203.343 118.136V119C203.226 119.011 203.124 119.021 203.039 119.032C202.954 119.043 202.89 119.043 202.847 119.032C202.58 119.021 202.378 118.936 202.239 118.776C202.1 118.616 202.026 118.445 202.015 118.264L201.999 117.656C201.626 118.136 201.14 118.509 200.543 118.776C199.946 119.032 199.338 119.16 198.719 119.16C198.186 119.16 197.7 119.048 197.263 118.824C196.836 118.589 196.5 118.28 196.255 117.896C196.02 117.501 195.903 117.069 195.903 116.6ZM201.487 117.24C201.604 117.091 201.695 116.947 201.759 116.808C201.823 116.669 201.855 116.547 201.855 116.44V115.224C201.492 115.085 201.114 114.979 200.719 114.904C200.335 114.829 199.946 114.792 199.551 114.792C198.772 114.792 198.143 114.947 197.663 115.256C197.183 115.565 196.943 115.987 196.943 116.52C196.943 116.829 197.023 117.123 197.183 117.4C197.343 117.667 197.578 117.891 197.887 118.072C198.196 118.243 198.559 118.328 198.975 118.328C199.498 118.328 199.983 118.227 200.431 118.024C200.89 117.821 201.242 117.56 201.487 117.24ZM208.03 119.16C207.347 119.16 206.712 119.048 206.126 118.824C205.539 118.6 205.032 118.259 204.606 117.8L205.054 117.032C205.523 117.469 205.992 117.789 206.462 117.992C206.942 118.184 207.448 118.28 207.982 118.28C208.632 118.28 209.16 118.152 209.566 117.896C209.971 117.629 210.174 117.251 210.174 116.76C210.174 116.429 210.072 116.179 209.87 116.008C209.678 115.827 209.395 115.683 209.022 115.576C208.659 115.459 208.222 115.336 207.71 115.208C207.134 115.048 206.648 114.883 206.254 114.712C205.87 114.531 205.576 114.307 205.374 114.04C205.182 113.763 205.086 113.405 205.086 112.968C205.086 112.424 205.219 111.976 205.486 111.624C205.763 111.261 206.136 110.989 206.606 110.808C207.086 110.616 207.619 110.52 208.206 110.52C208.846 110.52 209.411 110.621 209.902 110.824C210.392 111.027 210.792 111.309 211.102 111.672L210.574 112.408C210.275 112.067 209.918 111.816 209.502 111.656C209.096 111.485 208.643 111.4 208.142 111.4C207.8 111.4 207.475 111.448 207.166 111.544C206.856 111.629 206.6 111.779 206.398 111.992C206.206 112.195 206.11 112.477 206.11 112.84C206.11 113.139 206.184 113.373 206.334 113.544C206.483 113.704 206.707 113.843 207.006 113.96C207.304 114.067 207.672 114.184 208.11 114.312C208.739 114.483 209.288 114.659 209.758 114.84C210.227 115.011 210.59 115.235 210.846 115.512C211.102 115.789 211.23 116.179 211.23 116.68C211.23 117.459 210.936 118.067 210.35 118.504C209.763 118.941 208.99 119.16 208.03 119.16ZM215.764 119.16C215.081 119.16 214.447 119.048 213.86 118.824C213.273 118.6 212.767 118.259 212.34 117.8L212.788 117.032C213.257 117.469 213.727 117.789 214.196 117.992C214.676 118.184 215.183 118.28 215.716 118.28C216.367 118.28 216.895 118.152 217.3 117.896C217.705 117.629 217.908 117.251 217.908 116.76C217.908 116.429 217.807 116.179 217.604 116.008C217.412 115.827 217.129 115.683 216.756 115.576C216.393 115.459 215.956 115.336 215.444 115.208C214.868 115.048 214.383 114.883 213.988 114.712C213.604 114.531 213.311 114.307 213.108 114.04C212.916 113.763 212.82 113.405 212.82 112.968C212.82 112.424 212.953 111.976 213.22 111.624C213.497 111.261 213.871 110.989 214.34 110.808C214.82 110.616 215.353 110.52 215.94 110.52C216.58 110.52 217.145 110.621 217.636 110.824C218.127 111.027 218.527 111.309 218.836 111.672L218.308 112.408C218.009 112.067 217.652 111.816 217.236 111.656C216.831 111.485 216.377 111.4 215.876 111.4C215.535 111.4 215.209 111.448 214.9 111.544C214.591 111.629 214.335 111.779 214.132 111.992C213.94 112.195 213.844 112.477 213.844 112.84C213.844 113.139 213.919 113.373 214.068 113.544C214.217 113.704 214.441 113.843 214.74 113.96C215.039 114.067 215.407 114.184 215.844 114.312C216.473 114.483 217.023 114.659 217.492 114.84C217.961 115.011 218.324 115.235 218.58 115.512C218.836 115.789 218.964 116.179 218.964 116.68C218.964 117.459 218.671 118.067 218.084 118.504C217.497 118.941 216.724 119.16 215.764 119.16ZM224.363 119.16C223.765 119.16 223.211 119.048 222.699 118.824C222.187 118.589 221.744 118.275 221.371 117.88C220.997 117.475 220.704 117.011 220.491 116.488C220.288 115.965 220.187 115.405 220.187 114.808C220.187 114.029 220.363 113.315 220.715 112.664C221.077 112.013 221.573 111.496 222.203 111.112C222.832 110.717 223.547 110.52 224.347 110.52C225.168 110.52 225.883 110.717 226.491 111.112C227.109 111.507 227.595 112.029 227.947 112.68C228.299 113.32 228.475 114.024 228.475 114.792C228.475 114.877 228.475 114.963 228.475 115.048C228.475 115.123 228.469 115.181 228.459 115.224H221.323C221.376 115.821 221.541 116.355 221.819 116.824C222.107 117.283 222.475 117.651 222.923 117.928C223.381 118.195 223.877 118.328 224.411 118.328C224.955 118.328 225.467 118.189 225.947 117.912C226.437 117.635 226.779 117.272 226.971 116.824L227.915 117.08C227.744 117.475 227.483 117.832 227.131 118.152C226.779 118.472 226.363 118.723 225.883 118.904C225.413 119.075 224.907 119.16 224.363 119.16ZM221.291 114.44H227.451C227.408 113.832 227.243 113.299 226.955 112.84C226.677 112.381 226.309 112.024 225.851 111.768C225.403 111.501 224.907 111.368 224.363 111.368C223.819 111.368 223.323 111.501 222.875 111.768C222.427 112.024 222.059 112.387 221.771 112.856C221.493 113.315 221.333 113.843 221.291 114.44ZM232.889 119.16C232.206 119.16 231.572 119.048 230.985 118.824C230.398 118.6 229.892 118.259 229.465 117.8L229.913 117.032C230.382 117.469 230.852 117.789 231.321 117.992C231.801 118.184 232.308 118.28 232.841 118.28C233.492 118.28 234.02 118.152 234.425 117.896C234.83 117.629 235.033 117.251 235.033 116.76C235.033 116.429 234.932 116.179 234.729 116.008C234.537 115.827 234.254 115.683 233.881 115.576C233.518 115.459 233.081 115.336 232.569 115.208C231.993 115.048 231.508 114.883 231.113 114.712C230.729 114.531 230.436 114.307 230.233 114.04C230.041 113.763 229.945 113.405 229.945 112.968C229.945 112.424 230.078 111.976 230.345 111.624C230.622 111.261 230.996 110.989 231.465 110.808C231.945 110.616 232.478 110.52 233.065 110.52C233.705 110.52 234.27 110.621 234.761 110.824C235.252 111.027 235.652 111.309 235.961 111.672L235.433 112.408C235.134 112.067 234.777 111.816 234.361 111.656C233.956 111.485 233.502 111.4 233.001 111.4C232.66 111.4 232.334 111.448 232.025 111.544C231.716 111.629 231.46 111.779 231.257 111.992C231.065 112.195 230.969 112.477 230.969 112.84C230.969 113.139 231.044 113.373 231.193 113.544C231.342 113.704 231.566 113.843 231.865 113.96C232.164 114.067 232.532 114.184 232.969 114.312C233.598 114.483 234.148 114.659 234.617 114.84C235.086 115.011 235.449 115.235 235.705 115.512C235.961 115.789 236.089 116.179 236.089 116.68C236.089 117.459 235.796 118.067 235.209 118.504C234.622 118.941 233.849 119.16 232.889 119.16ZM240.624 119.16C239.941 119.16 239.306 119.048 238.72 118.824C238.133 118.6 237.626 118.259 237.2 117.8L237.648 117.032C238.117 117.469 238.586 117.789 239.056 117.992C239.536 118.184 240.042 118.28 240.576 118.28C241.226 118.28 241.754 118.152 242.16 117.896C242.565 117.629 242.768 117.251 242.768 116.76C242.768 116.429 242.666 116.179 242.464 116.008C242.272 115.827 241.989 115.683 241.616 115.576C241.253 115.459 240.816 115.336 240.304 115.208C239.728 115.048 239.242 114.883 238.848 114.712C238.464 114.531 238.17 114.307 237.968 114.04C237.776 113.763 237.68 113.405 237.68 112.968C237.68 112.424 237.813 111.976 238.08 111.624C238.357 111.261 238.73 110.989 239.2 110.808C239.68 110.616 240.213 110.52 240.799 110.52C241.44 110.52 242.005 110.621 242.496 110.824C242.986 111.027 243.386 111.309 243.696 111.672L243.168 112.408C242.869 112.067 242.512 111.816 242.096 111.656C241.69 111.485 241.237 111.4 240.736 111.4C240.394 111.4 240.069 111.448 239.76 111.544C239.45 111.629 239.194 111.779 238.992 111.992C238.8 112.195 238.704 112.477 238.704 112.84C238.704 113.139 238.778 113.373 238.928 113.544C239.077 113.704 239.301 113.843 239.6 113.96C239.898 114.067 240.266 114.184 240.704 114.312C241.333 114.483 241.882 114.659 242.352 114.84C242.821 115.011 243.184 115.235 243.44 115.512C243.696 115.789 243.824 116.179 243.824 116.68C243.824 117.459 243.53 118.067 242.944 118.504C242.357 118.941 241.584 119.16 240.624 119.16ZM249.743 121.56C249.892 121.571 250.036 121.576 250.174 121.576C250.313 121.587 250.415 121.581 250.479 121.56C250.607 121.539 250.729 121.464 250.847 121.336C250.964 121.208 251.103 120.963 251.263 120.6C251.423 120.237 251.647 119.704 251.935 119L248.303 110.664H249.455L252.511 117.88L255.327 110.664H256.415L252.095 121.416C252.02 121.619 251.908 121.805 251.759 121.976C251.609 122.157 251.423 122.296 251.199 122.392C250.985 122.499 250.719 122.557 250.399 122.568C250.303 122.579 250.201 122.579 250.095 122.568C249.999 122.568 249.881 122.557 249.743 122.536V121.56ZM261.19 119.16C260.592 119.16 260.038 119.048 259.526 118.824C259.024 118.589 258.587 118.275 258.214 117.88C257.851 117.475 257.568 117.016 257.366 116.504C257.163 115.981 257.062 115.432 257.062 114.856C257.062 114.259 257.163 113.704 257.366 113.192C257.568 112.669 257.856 112.211 258.23 111.816C258.603 111.411 259.04 111.096 259.542 110.872C260.054 110.637 260.608 110.52 261.206 110.52C261.803 110.52 262.352 110.637 262.854 110.872C263.355 111.096 263.792 111.411 264.166 111.816C264.539 112.211 264.827 112.669 265.03 113.192C265.232 113.704 265.334 114.259 265.334 114.856C265.334 115.432 265.232 115.981 265.03 116.504C264.827 117.016 264.539 117.475 264.166 117.88C263.803 118.275 263.366 118.589 262.854 118.824C262.352 119.048 261.798 119.16 261.19 119.16ZM258.166 114.872C258.166 115.491 258.299 116.056 258.566 116.568C258.843 117.069 259.211 117.469 259.67 117.768C260.128 118.056 260.635 118.2 261.19 118.2C261.744 118.2 262.251 118.051 262.71 117.752C263.168 117.453 263.536 117.048 263.814 116.536C264.091 116.013 264.23 115.448 264.23 114.84C264.23 114.221 264.091 113.656 263.814 113.144C263.536 112.632 263.168 112.227 262.71 111.928C262.251 111.629 261.744 111.48 261.19 111.48C260.635 111.48 260.128 111.635 259.67 111.944C259.222 112.253 258.859 112.664 258.582 113.176C258.304 113.677 258.166 114.243 258.166 114.872ZM267.073 115.56V110.664H268.161V115.368C268.161 116.317 268.321 117.027 268.641 117.496C268.972 117.965 269.457 118.2 270.097 118.2C270.524 118.2 270.934 118.109 271.329 117.928C271.734 117.736 272.092 117.469 272.401 117.128C272.71 116.776 272.945 116.371 273.105 115.912V110.664H274.193V117.688C274.193 117.837 274.225 117.949 274.289 118.024C274.353 118.088 274.449 118.125 274.577 118.136V119C274.449 119.011 274.348 119.016 274.273 119.016C274.198 119.027 274.129 119.032 274.065 119.032C273.852 119.011 273.665 118.925 273.505 118.776C273.356 118.627 273.276 118.445 273.265 118.232L273.233 117.112C272.87 117.752 272.374 118.253 271.745 118.616C271.126 118.979 270.454 119.16 269.729 119.16C268.854 119.16 268.193 118.856 267.745 118.248C267.297 117.64 267.073 116.744 267.073 115.56ZM280.813 111.624C280.088 111.645 279.448 111.848 278.893 112.232C278.349 112.616 277.965 113.144 277.741 113.816V119H276.653V110.664H277.677V112.664C277.965 112.077 278.344 111.603 278.813 111.24C279.293 110.877 279.8 110.675 280.333 110.632C280.44 110.621 280.53 110.616 280.605 110.616C280.69 110.616 280.76 110.621 280.813 110.632V111.624ZM288.008 119L284.632 110.664H285.768L288.616 117.912L291.48 110.664H292.552L289.176 119H288.008ZM294.059 119V110.664H295.147V119H294.059ZM294.059 108.92V107.32H295.147V108.92H294.059ZM301.544 118.6C301.458 118.632 301.325 118.691 301.144 118.776C300.962 118.861 300.744 118.936 300.488 119C300.232 119.064 299.954 119.096 299.656 119.096C299.346 119.096 299.053 119.037 298.776 118.92C298.509 118.803 298.296 118.627 298.136 118.392C297.976 118.147 297.896 117.848 297.896 117.496V111.528H296.744V110.664H297.896V107.848H298.984V110.664H300.904V111.528H298.984V117.192C299.005 117.491 299.112 117.715 299.304 117.864C299.506 118.013 299.736 118.088 299.992 118.088C300.29 118.088 300.562 118.04 300.808 117.944C301.053 117.837 301.202 117.763 301.256 117.72L301.544 118.6ZM302.231 116.6C302.231 116.077 302.38 115.629 302.679 115.256C302.978 114.872 303.388 114.579 303.911 114.376C304.444 114.163 305.058 114.056 305.751 114.056C306.156 114.056 306.578 114.088 307.015 114.152C307.452 114.216 307.842 114.312 308.183 114.44V113.736C308.183 113.032 307.975 112.472 307.559 112.056C307.143 111.64 306.567 111.432 305.831 111.432C305.383 111.432 304.94 111.517 304.503 111.688C304.076 111.848 303.628 112.088 303.159 112.408L302.743 111.64C303.287 111.267 303.82 110.989 304.343 110.808C304.866 110.616 305.399 110.52 305.943 110.52C306.967 110.52 307.778 110.813 308.375 111.4C308.972 111.987 309.271 112.797 309.271 113.832V117.688C309.271 117.837 309.303 117.949 309.367 118.024C309.431 118.088 309.532 118.125 309.671 118.136V119C309.554 119.011 309.452 119.021 309.367 119.032C309.282 119.043 309.218 119.043 309.175 119.032C308.908 119.021 308.706 118.936 308.567 118.776C308.428 118.616 308.354 118.445 308.343 118.264L308.327 117.656C307.954 118.136 307.468 118.509 306.871 118.776C306.274 119.032 305.666 119.16 305.047 119.16C304.514 119.16 304.028 119.048 303.591 118.824C303.164 118.589 302.828 118.28 302.583 117.896C302.348 117.501 302.231 117.069 302.231 116.6ZM307.815 117.24C307.932 117.091 308.023 116.947 308.087 116.808C308.151 116.669 308.183 116.547 308.183 116.44V115.224C307.82 115.085 307.442 114.979 307.047 114.904C306.663 114.829 306.274 114.792 305.879 114.792C305.1 114.792 304.471 114.947 303.991 115.256C303.511 115.565 303.271 115.987 303.271 116.52C303.271 116.829 303.351 117.123 303.511 117.4C303.671 117.667 303.906 117.891 304.215 118.072C304.524 118.243 304.887 118.328 305.303 118.328C305.826 118.328 306.311 118.227 306.759 118.024C307.218 117.821 307.57 117.56 307.815 117.24ZM311.67 107.32H312.758V117.112C312.758 117.528 312.833 117.8 312.982 117.928C313.131 118.056 313.313 118.12 313.526 118.12C313.718 118.12 313.91 118.099 314.102 118.056C314.294 118.013 314.459 117.971 314.598 117.928L314.79 118.808C314.587 118.893 314.337 118.963 314.038 119.016C313.75 119.069 313.499 119.096 313.286 119.096C312.795 119.096 312.401 118.952 312.102 118.664C311.814 118.376 311.67 117.981 311.67 117.48V107.32ZM145.936 147.16C145.253 147.16 144.619 147.048 144.032 146.824C143.445 146.6 142.939 146.259 142.512 145.8L142.96 145.032C143.429 145.469 143.899 145.789 144.368 145.992C144.848 146.184 145.355 146.28 145.888 146.28C146.539 146.28 147.067 146.152 147.472 145.896C147.877 145.629 148.08 145.251 148.08 144.76C148.08 144.429 147.979 144.179 147.776 144.008C147.584 143.827 147.301 143.683 146.928 143.576C146.565 143.459 146.128 143.336 145.616 143.208C145.04 143.048 144.555 142.883 144.16 142.712C143.776 142.531 143.483 142.307 143.28 142.04C143.088 141.763 142.992 141.405 142.992 140.968C142.992 140.424 143.125 139.976 143.392 139.624C143.669 139.261 144.043 138.989 144.512 138.808C144.992 138.616 145.525 138.52 146.112 138.52C146.752 138.52 147.317 138.621 147.808 138.824C148.299 139.027 148.699 139.309 149.008 139.672L148.48 140.408C148.181 140.067 147.824 139.816 147.408 139.656C147.003 139.485 146.549 139.4 146.048 139.4C145.707 139.4 145.381 139.448 145.072 139.544C144.763 139.629 144.507 139.779 144.304 139.992C144.112 140.195 144.016 140.477 144.016 140.84C144.016 141.139 144.091 141.373 144.24 141.544C144.389 141.704 144.613 141.843 144.912 141.96C145.211 142.067 145.579 142.184 146.016 142.312C146.645 142.483 147.195 142.659 147.664 142.84C148.133 143.011 148.496 143.235 148.752 143.512C149.008 143.789 149.136 144.179 149.136 144.68C149.136 145.459 148.843 146.067 148.256 146.504C147.669 146.941 146.896 147.16 145.936 147.16ZM150.934 147V138.664H152.022V147H150.934ZM150.934 136.92V135.32H152.022V136.92H150.934ZM157.763 147.112C157.197 147.112 156.675 146.995 156.195 146.76C155.715 146.525 155.299 146.211 154.947 145.816C154.605 145.411 154.339 144.952 154.147 144.44C153.955 143.928 153.859 143.4 153.859 142.856C153.859 142.269 153.949 141.72 154.131 141.208C154.323 140.685 154.589 140.221 154.931 139.816C155.283 139.411 155.693 139.096 156.163 138.872C156.632 138.637 157.155 138.52 157.731 138.52C158.445 138.52 159.064 138.701 159.587 139.064C160.12 139.427 160.568 139.875 160.931 140.408V138.664H161.907V147.032C161.907 147.8 161.72 148.445 161.347 148.968C160.984 149.501 160.488 149.901 159.859 150.168C159.24 150.435 158.563 150.568 157.827 150.568C156.877 150.568 156.109 150.397 155.523 150.056C154.936 149.715 154.456 149.256 154.083 148.68L154.755 148.152C155.085 148.675 155.523 149.064 156.067 149.32C156.621 149.576 157.208 149.704 157.827 149.704C158.371 149.704 158.867 149.603 159.315 149.4C159.773 149.208 160.136 148.915 160.403 148.52C160.68 148.125 160.819 147.629 160.819 147.032V145.384C160.499 145.907 160.061 146.328 159.507 146.648C158.952 146.957 158.371 147.112 157.763 147.112ZM158.067 146.2C158.397 146.2 158.712 146.141 159.011 146.024C159.32 145.907 159.603 145.752 159.859 145.56C160.115 145.357 160.328 145.133 160.499 144.888C160.669 144.643 160.776 144.392 160.819 144.136V141.56C160.659 141.155 160.429 140.797 160.131 140.488C159.832 140.168 159.491 139.923 159.107 139.752C158.733 139.571 158.344 139.48 157.939 139.48C157.469 139.48 157.048 139.581 156.675 139.784C156.312 139.976 156.003 140.237 155.747 140.568C155.501 140.888 155.309 141.251 155.171 141.656C155.032 142.061 154.963 142.467 154.963 142.872C154.963 143.32 155.043 143.747 155.203 144.152C155.363 144.547 155.581 144.904 155.859 145.224C156.147 145.533 156.477 145.773 156.851 145.944C157.235 146.115 157.64 146.2 158.067 146.2ZM171.317 147H170.229V142.344C170.229 141.363 170.085 140.648 169.797 140.2C169.509 139.741 169.056 139.512 168.437 139.512C168.011 139.512 167.589 139.619 167.173 139.832C166.757 140.035 166.389 140.317 166.069 140.68C165.76 141.032 165.536 141.437 165.397 141.896V147H164.309V138.664H165.301V140.552C165.525 140.147 165.819 139.795 166.181 139.496C166.544 139.187 166.955 138.947 167.413 138.776C167.872 138.605 168.347 138.52 168.837 138.52C169.296 138.52 169.685 138.605 170.005 138.776C170.325 138.947 170.581 139.192 170.773 139.512C170.965 139.821 171.104 140.2 171.189 140.648C171.275 141.085 171.317 141.576 171.317 142.12V147ZM176.374 147.16C175.691 147.16 175.056 147.048 174.47 146.824C173.883 146.6 173.376 146.259 172.95 145.8L173.398 145.032C173.867 145.469 174.336 145.789 174.806 145.992C175.286 146.184 175.792 146.28 176.326 146.28C176.976 146.28 177.504 146.152 177.91 145.896C178.315 145.629 178.518 145.251 178.518 144.76C178.518 144.429 178.416 144.179 178.214 144.008C178.022 143.827 177.739 143.683 177.366 143.576C177.003 143.459 176.566 143.336 176.054 143.208C175.478 143.048 174.992 142.883 174.598 142.712C174.214 142.531 173.92 142.307 173.718 142.04C173.526 141.763 173.43 141.405 173.43 140.968C173.43 140.424 173.563 139.976 173.83 139.624C174.107 139.261 174.48 138.989 174.95 138.808C175.43 138.616 175.963 138.52 176.549 138.52C177.19 138.52 177.755 138.621 178.246 138.824C178.736 139.027 179.136 139.309 179.446 139.672L178.918 140.408C178.619 140.067 178.262 139.816 177.846 139.656C177.44 139.485 176.987 139.4 176.486 139.4C176.144 139.4 175.819 139.448 175.51 139.544C175.2 139.629 174.944 139.779 174.742 139.992C174.55 140.195 174.454 140.477 174.454 140.84C174.454 141.139 174.528 141.373 174.678 141.544C174.827 141.704 175.051 141.843 175.35 141.96C175.648 142.067 176.016 142.184 176.454 142.312C177.083 142.483 177.632 142.659 178.102 142.84C178.571 143.011 178.934 143.235 179.19 143.512C179.446 143.789 179.574 144.179 179.574 144.68C179.574 145.459 179.28 146.067 178.694 146.504C178.107 146.941 177.334 147.16 176.374 147.16ZM181.212 147V145.432H182.156V147H181.212Z" fill="#030D04"/>
<rect x="349" y="24" width="75" height="131" rx="10" fill="#002205"/>
<path d="M381.812 94.4125H374V79.675H381.812V67.3938H391.188V79.675H399V94.4125H391.188V106.694H381.812V94.4125ZM386.5 40.375L361.5 55.1125V85.0296C361.5 109.838 372.156 132.976 386.5 138.625C400.844 132.976 411.5 109.838 411.5 85.0296V55.1125L386.5 40.375ZM405.25 85.0296C405.25 104.68 397.281 122.856 386.5 128.407C375.719 122.856 367.75 104.729 367.75 85.0296V61.9409L386.5 50.8878L405.25 61.9409V85.0296Z" fill="#C3D9C4"/>
<path d="M80.5 0H485.5H80.5ZM485.5 169C485.5 178.941 477.441 187 467.5 187H98.5C88.5589 187 80.5 178.941 80.5 169C80.5 170.105 84.9772 171 90.5 171H475.5C481.023 171 485.5 170.105 485.5 169ZM80.5 179V0V179ZM485.5 0V179V0Z" fill="#E5A000" mask="url(#path-1-inside-1_1033_6691)"/>
</g>
<defs>
<filter id="filter0_dddddd_1033_6691" x="0.5" y="0" width="565" height="359" filterUnits="userSpaceOnUse" color-interpolation-filters="sRGB">
<feFlood flood-opacity="0" result="BackgroundImageFix"/>
<feColorMatrix in="SourceAlpha" type="matrix" values="0 0 0 0 0 0 0 0 0 0 0 0 0 0 0 0 0 0 127 0" result="hardAlpha"/>
<feOffset dy="2.76726"/>
<feGaussianBlur stdDeviation="1.1069"/>
<feColorMatrix type="matrix" values="0 0 0 0 0.0235294 0 0 0 0 0.0235294 0 0 0 0 0.101961 0 0 0 0.07 0"/>
<feBlend mode="normal" in2="BackgroundImageFix" result="effect1_dropShadow_1033_6691"/>
<feColorMatrix in="SourceAlpha" type="matrix" values="0 0 0 0 0 0 0 0 0 0 0 0 0 0 0 0 0 0 127 0" result="hardAlpha"/>
<feOffset dy="6.6501"/>
<feGaussianBlur stdDeviation="2.66004"/>
<feColorMatrix type="matrix" values="0 0 0 0 0.0235294 0 0 0 0 0.0235294 0 0 0 0 0.101961 0 0 0 0.0503198 0"/>
<feBlend mode="normal" in2="effect1_dropShadow_1033_6691" result="effect2_dropShadow_1033_6691"/>
<feColorMatrix in="SourceAlpha" type="matrix" values="0 0 0 0 0 0 0 0 0 0 0 0 0 0 0 0 0 0 127 0" result="hardAlpha"/>
<feOffset dy="12.5216"/>
<feGaussianBlur stdDeviation="5.00862"/>
<feColorMatrix type="matrix" values="0 0 0 0 0.0235294 0 0 0 0 0.0235294 0 0 0 0 0.101961 0 0 0 0.0417275 0"/>
<feBlend mode="normal" in2="effect2_dropShadow_1033_6691" result="effect3_dropShadow_1033_6691"/>
<feColorMatrix in="SourceAlpha" type="matrix" values="0 0 0 0 0 0 0 0 0 0 0 0 0 0 0 0 0 0 127 0" result="hardAlpha"/>
<feOffset dy="22.3363"/>
<feGaussianBlur stdDeviation="8.93452"/>
<feColorMatrix type="matrix" values="0 0 0 0 0.0235294 0 0 0 0 0.0235294 0 0 0 0 0.101961 0 0 0 0.035 0"/>
<feBlend mode="normal" in2="effect3_dropShadow_1033_6691" result="effect4_dropShadow_1033_6691"/>
<feColorMatrix in="SourceAlpha" type="matrix" values="0 0 0 0 0 0 0 0 0 0 0 0 0 0 0 0 0 0 127 0" result="hardAlpha"/>
<feOffset dy="41.7776"/>
<feGaussianBlur stdDeviation="16.711"/>
<feColorMatrix type="matrix" values="0 0 0 0 0.0235294 0 0 0 0 0.0235294 0 0 0 0 0.101961 0 0 0 0.0282725 0"/>
<feBlend mode="normal" in2="effect4_dropShadow_1033_6691" result="effect5_dropShadow_1033_6691"/>
<feColorMatrix in="SourceAlpha" type="matrix" values="0 0 0 0 0 0 0 0 0 0 0 0 0 0 0 0 0 0 127 0" result="hardAlpha"/>
<feOffset dy="100"/>
<feGaussianBlur stdDeviation="40"/>
<feColorMatrix type="matrix" values="0 0 0 0 0.0235294 0 0 0 0 0.0235294 0 0 0 0 0.101961 0 0 0 0.0196802 0"/>
<feBlend mode="normal" in2="effect5_dropShadow_1033_6691" result="effect6_dropShadow_1033_6691"/>
<feBlend mode="normal" in="SourceGraphic" in2="effect6_dropShadow_1033_6691" result="shape"/>
</filter>
</defs>
</svg>
