<svg width="32" height="32" viewBox="0 0 32 32" fill="none" xmlns="http://www.w3.org/2000/svg">
<path d="M16 2.66666C19.6227 2.66666 20.0747 2.67999 21.496 2.74666C22.916 2.81332 23.8827 3.03599 24.7333 3.36666C25.6133 3.70532 26.3547 4.16399 27.096 4.90399C27.774 5.57052 28.2986 6.37677 28.6333 7.26666C28.9627 8.11599 29.1867 9.08399 29.2533 10.504C29.316 11.9253 29.3333 12.3773 29.3333 16C29.3333 19.6227 29.32 20.0747 29.2533 21.496C29.1867 22.916 28.9627 23.8827 28.6333 24.7333C28.2996 25.6237 27.7748 26.4301 27.096 27.096C26.4293 27.7737 25.6231 28.2983 24.7333 28.6333C23.884 28.9627 22.916 29.1867 21.496 29.2533C20.0747 29.316 19.6227 29.3333 16 29.3333C12.3773 29.3333 11.9253 29.32 10.504 29.2533C9.08399 29.1867 8.11732 28.9627 7.26666 28.6333C6.37642 28.2993 5.57003 27.7746 4.90399 27.096C4.22587 26.4296 3.70123 25.6233 3.36666 24.7333C3.03599 23.884 2.81332 22.916 2.74666 21.496C2.68399 20.0747 2.66666 19.6227 2.66666 16C2.66666 12.3773 2.67999 11.9253 2.74666 10.504C2.81332 9.08266 3.03599 8.11732 3.36666 7.26666C3.7003 6.37623 4.22506 5.56975 4.90399 4.90399C5.57022 4.22563 6.37656 3.70096 7.26666 3.36666C8.11732 3.03599 9.08266 2.81332 10.504 2.74666C11.9253 2.68399 12.3773 2.66666 16 2.66666ZM16 9.33332C14.2319 9.33332 12.5362 10.0357 11.2859 11.2859C10.0357 12.5362 9.33332 14.2319 9.33332 16C9.33332 17.7681 10.0357 19.4638 11.2859 20.714C12.5362 21.9643 14.2319 22.6667 16 22.6667C17.7681 22.6667 19.4638 21.9643 20.714 20.714C21.9643 19.4638 22.6667 17.7681 22.6667 16C22.6667 14.2319 21.9643 12.5362 20.714 11.2859C19.4638 10.0357 17.7681 9.33332 16 9.33332ZM24.6667 8.99999C24.6667 8.55796 24.4911 8.13404 24.1785 7.82148C23.8659 7.50892 23.442 7.33332 23 7.33332C22.558 7.33332 22.134 7.50892 21.8215 7.82148C21.5089 8.13404 21.3333 8.55796 21.3333 8.99999C21.3333 9.44202 21.5089 9.86594 21.8215 10.1785C22.134 10.4911 22.558 10.6667 23 10.6667C23.442 10.6667 23.8659 10.4911 24.1785 10.1785C24.4911 9.86594 24.6667 9.44202 24.6667 8.99999ZM16 12C17.0609 12 18.0783 12.4214 18.8284 13.1716C19.5786 13.9217 20 14.9391 20 16C20 17.0609 19.5786 18.0783 18.8284 18.8284C18.0783 19.5786 17.0609 20 16 20C14.9391 20 13.9217 19.5786 13.1716 18.8284C12.4214 18.0783 12 17.0609 12 16C12 14.9391 12.4214 13.9217 13.1716 13.1716C13.9217 12.4214 14.9391 12 16 12Z" fill="white"/>
</svg>
